<svg width="191" height="187" viewBox="0 0 191 187" fill="none" xmlns="http://www.w3.org/2000/svg">
<path d="M56.6382 71.7951L56.9811 71.5575L56.5327 72.508C56.3921 72.7897 56.0756 73.1242 55.5833 73.5114L54.8448 74.1715L54.8712 73.4322C54.9064 73.0801 55.4954 72.5344 56.6382 71.7951ZM41.0777 63.7944C40.8667 62.9846 40.4535 61.9901 39.8382 60.8106L38.9414 59.1999C38.7305 58.8831 38.4403 58.7775 38.0711 58.8831C37.7195 59.0063 37.5612 59.2615 37.5964 59.6488L37.8601 63.2927C38.0184 65.8628 38.0535 67.6055 37.9656 68.5209C37.9129 68.961 37.7986 69.2954 37.6228 69.5243L36.8579 70.1052L35.7502 70.7653C35.2403 71.1174 34.8623 71.4958 34.6161 71.9007C33.9832 72.9041 33.5612 74.4532 33.3502 76.548C33.1392 78.4844 33.1832 79.9278 33.4821 80.8784C33.5876 81.2129 33.6052 81.5033 33.5348 81.7498C33.4821 81.9786 33.3238 82.2427 33.0601 82.5419L32.4535 82.8852L31.926 83.2813L31.715 84.2054C31.7326 84.4343 31.8557 84.6807 32.0843 84.9448L32.6645 85.7369C32.8755 86.1242 32.981 86.4763 32.981 86.7931L32.8227 87.8757C32.7524 88.4566 32.7788 88.9143 32.9018 89.2488C33.0601 89.7417 33.3854 89.9969 33.8777 90.0145C34.4403 89.9617 34.8271 89.9617 35.0381 90.0145C35.4601 90.1378 35.7854 90.2962 36.014 90.4898C36.348 90.8419 36.5678 91.3084 36.6733 91.8893C36.7964 92.4526 36.7788 92.9103 36.6206 93.2624L36.1195 93.4208L35.5129 93.5792L34.6953 93.764C34.3788 93.9225 34.1942 94.1865 34.1414 94.5562L34.537 95.1107L35.2755 96.0085L36.2513 97.0383C36.6733 97.5135 36.77 97.848 36.5414 98.0416C36.3832 98.1649 36.0843 97.9096 35.6447 97.2759C35.0118 96.3605 34.5107 95.7268 34.1414 95.3747C33.0513 94.3186 31.8997 93.588 30.6865 93.1831C29.2271 92.6198 28.4974 92.3998 28.4974 92.523L28.8931 93.0511L29.315 93.5528C28.1546 92.9895 26.537 92.3206 24.4622 91.546L23.2227 91.3348C22.5897 91.2468 22.2644 91.2468 22.2469 91.3348C22.2117 91.4932 22.4491 91.7573 22.959 92.1269L23.9612 92.8135L30.7392 98.1209C31.4425 98.6842 32.137 99.5027 32.8227 100.577C33.403 101.439 33.7898 102.17 33.9832 102.768C34.1063 103.173 34.326 103.481 34.6425 103.692L35.592 104.247L36.0931 104.616L36.0667 104.775C35.9436 105.303 35.9612 105.998 36.1195 106.861L36.6733 107.442L37.2799 107.944C33.148 114.721 30.4667 121.445 29.2359 128.117C27.3722 138.116 29.0513 146.97 34.2733 154.68C40.9019 164.45 48.8932 170.576 58.247 173.058C62.2383 174.114 66.8097 174.625 71.9614 174.59L86.9417 173.507C95.4516 172.539 103.364 169.326 110.678 163.869C112.999 162.127 115.135 160.243 117.087 158.219L119.54 155.472L119.091 153.281L76.2603 141.742L75.5219 144.858L74.3087 143.749C74.2208 143.449 74.2208 143.159 74.3087 142.877C74.3966 142.631 74.5109 142.446 74.6515 142.323L68.6383 145.307C64.6295 147.278 60.4976 147.613 56.2426 146.31C51.1085 144.743 46.7305 140.923 43.1085 134.85C40.7173 130.837 39.7327 126.154 40.1546 120.803C40.4711 116.736 41.5173 112.679 43.2931 108.63C44.5942 108.683 45.3327 108.806 45.5085 109C46.0184 109.581 46.5019 109.933 46.9591 110.056C47.9261 110.355 49.1481 110.003 50.625 109L50.7305 108.92C51.2052 108.604 51.4074 107.935 51.3371 106.914L51.4162 106.122L51.6536 105.541C51.7943 105.382 52.014 105.241 52.313 105.118L53.3943 104.669L54.4756 104.775L55.7679 105.329C56.7701 105.928 57.3855 106.254 57.6141 106.306C58.3877 106.5 59.0119 105.963 59.4866 104.696L60.0668 102.451L60.1987 102.055L60.8053 100.761C60.9987 100.268 60.946 99.7844 60.6471 99.3091C60.4712 99.0098 60.2866 98.2793 60.0932 97.1175C59.8998 95.9557 59.8119 95.0579 59.8295 94.4242L59.8558 93.3416C59.8558 92.8311 59.7503 92.347 59.5394 91.8893C59.4163 91.6252 59.1789 91.2468 58.8273 90.7539L57.9569 89.3544L57.6932 88.3246L57.8251 87.4004C58.0009 86.7139 58.0712 86.1154 58.036 85.6049L57.9569 84.3111C57.9218 83.8006 57.8251 83.3517 57.6668 82.9644C57.5965 82.7884 57.3591 82.3571 56.9547 81.6706C56.6734 81.1777 56.5415 80.8256 56.5591 80.6144C56.5943 80.2623 56.902 79.2677 57.4822 77.6306C58.0624 76.0815 58.4053 74.9725 58.5108 74.3036C58.6163 73.617 58.669 72.8689 58.669 72.0592L58.6427 70.9765C58.6251 70.7829 58.5284 70.6157 58.3525 70.4749L60.6998 68.4153C60.8405 68.292 60.9196 68.1424 60.9372 67.9664C60.9723 67.7727 60.9284 67.5967 60.8053 67.4383C60.7174 67.2975 60.5767 67.2006 60.3833 67.1478L59.8822 67.227C58.247 68.0544 57.2009 68.5209 56.7437 68.6265L55.3459 68.6001L54.713 68.4945C53.7811 68.3537 52.7701 68.8289 51.68 69.9203L51.469 70.158L51.8118 67.3063C51.8646 66.5493 51.5921 65.3611 50.9943 63.7416C50.5371 62.5798 49.9745 61.3299 49.3063 59.9921C49.025 59.4288 48.7964 58.3198 48.6206 56.6651L48.4096 53.2324C48.4096 52.8451 48.225 52.6163 47.8558 52.5459C47.4865 52.4579 47.214 52.5811 47.0382 52.9155L46.6953 53.8133C46.4668 54.5174 46.3525 55.1864 46.3525 55.8201C46.3525 56.2778 46.2294 57.1051 45.9832 58.3022L46.2206 56.1634C46.2382 55.9697 46.1942 55.7937 46.0887 55.6353C45.9657 55.4592 45.8074 55.3536 45.614 55.3184C45.4206 55.3008 45.236 55.3448 45.0602 55.4504C44.9019 55.556 44.8052 55.7057 44.77 55.8993L44.5327 56.9555C44.3217 57.7301 44.0931 58.3814 43.847 58.9095C43.6184 59.42 43.5129 60.0185 43.5305 60.705L43.7415 62.4741L43.9261 63.6624C43.9613 64.2257 43.4777 65.1675 42.4755 66.4877L41.8426 67.3327L41.5525 67.8344L41.4733 66.7253C41.3854 65.4051 41.2535 64.4281 41.0777 63.7944Z" fill="#0D131A"/>
<path d="M42.3437 78.4756L41.869 78.2115C41.7459 78.2643 41.7459 78.5372 41.869 79.0301C42.0448 79.7518 42.1239 80.6144 42.1063 81.6178C42.0888 82.5507 41.9921 83.3429 41.8162 83.9942C41.658 84.5399 41.403 85.0416 41.0514 85.4993C40.7525 85.9218 40.5942 86.3266 40.5767 86.7139C40.5591 87.6293 40.6294 88.4919 40.7876 89.3016C40.7876 89.4776 40.7261 89.6009 40.603 89.6713C40.4975 89.7417 40.3305 89.6801 40.1019 89.4864C39.8734 89.2048 39.6712 88.8175 39.4953 88.3246C39.4074 88.0606 39.3986 87.7437 39.469 87.374C39.5041 86.9164 39.4338 86.5115 39.258 86.1594L38.836 85.288C38.6777 84.9712 38.5195 84.8392 38.3613 84.892L38.2821 85.3409L38.414 86.6875L38.0975 87.1628L37.9657 87.9549C38.0008 88.2366 38.247 88.9055 38.7041 89.9617L39.3107 91.7309C39.5041 92.3294 39.5832 92.7783 39.5481 93.0775C39.4602 93.9049 39.2931 94.3185 39.047 94.3185L38.836 93.9753L38.625 93.2623L37.781 91.6516C37.6052 91.3524 37.2711 90.9563 36.7788 90.4634C37.1656 91.1676 37.3591 91.8981 37.3591 92.655C37.3591 92.9895 37.2711 93.3768 37.0953 93.8168C36.9722 94.0985 36.6206 94.3009 36.0404 94.4242C35.4777 94.5122 35.1788 94.6794 35.1437 94.9259C35.1085 95.2075 35.3019 95.5244 35.7239 95.8764L36.7261 96.7478C36.9898 97.0823 37.1305 97.4255 37.1481 97.7776C37.1832 98.1825 37.0426 98.4905 36.7261 98.7018C36.3744 98.9482 35.8645 98.6049 35.1964 97.672L33.6931 95.6388C33.1305 95.1635 31.9173 94.477 30.0535 93.5792L31.7414 95.0315C31.9876 95.2427 32.225 95.5508 32.4535 95.9557L32.7173 96.5102L31.6623 95.7972C30.8184 95.2515 30.0711 94.7938 29.4206 94.4242C28.3656 93.8609 26.6249 93.1303 24.1985 92.2325L31.1349 97.2231C31.9612 97.8744 32.7612 98.6754 33.5349 99.6259C34.2557 100.541 34.7129 101.289 34.9063 101.87C35.0645 102.31 35.4338 102.768 36.014 103.243L37.2272 104.168C37.3854 104.344 37.4294 104.599 37.3591 104.933L37.3327 106.254C37.403 106.553 37.5788 106.826 37.8602 107.072L41.7635 102.847L43.4514 101.342L44.3745 100.682L42.4492 103.296L43.9261 103.455L44.269 103.904L45.3503 101.923L45.2448 102.821C45.0866 103.631 44.814 104.599 44.4272 105.725L45.5613 105.831L46.247 106.042L46.6954 106.016C47.2053 105.576 47.4778 105.268 47.513 105.092C47.5305 104.986 47.4954 104.881 47.4075 104.775L47.2229 104.537C47.0119 104.132 46.9415 103.569 47.0118 102.847C47.0822 102.126 47.2668 101.58 47.5657 101.21C47.847 100.841 48.3657 100.427 49.1218 99.9692C49.9305 99.4939 50.5723 99.2563 51.047 99.2563C51.2229 99.2563 51.5042 99.3531 51.891 99.5467L52.8141 99.9692C53.1481 100.057 53.4295 99.9076 53.658 99.5203C54.0449 98.781 54.3438 97.9448 54.5548 97.0119C54.7657 96.0261 54.7569 95.4188 54.5284 95.1899C54.2646 94.9259 53.491 94.5034 52.2075 93.9225L50.8624 93.1567C50.4756 92.8927 50.2382 92.6198 50.1503 92.3382C49.9393 91.7573 50.1679 91.0531 50.836 90.2258C51.7152 89.152 51.9086 88.1222 51.4163 87.1364C51.2053 86.6787 50.6954 86.3002 49.8866 86.001C49.3943 85.8073 48.8844 85.4289 48.3569 84.8656L47.5393 83.3605L46.8536 81.2745C46.6778 80.6408 46.5107 80.3239 46.3525 80.3239C46.247 80.3239 46.1767 80.5704 46.1415 81.0633C46.1064 81.7146 46.1415 82.3571 46.247 82.9908L46.458 84.2583C46.4932 84.5047 46.4756 84.6631 46.4053 84.7335C46.2822 84.8568 46.1327 84.9008 45.9569 84.8656C45.4646 84.7423 45.0602 84.4695 44.7437 84.047C44.3745 83.5189 44.102 82.7092 43.9261 81.6178C43.7855 80.7728 43.4778 79.9895 43.003 79.2677L42.3437 78.4756Z" fill="#EFE908"/>
<path d="M40.392 63.9792C40.181 63.2047 39.7678 62.2453 39.1525 61.1011L38.3085 59.596L38.5722 63.2399C38.7481 65.8452 38.7832 67.6319 38.6777 68.6001C38.5898 69.4627 38.203 70.1228 37.5173 70.5805C36.5854 71.1966 35.9612 71.7511 35.6447 72.244C35.0469 73.1946 34.5898 74.6469 34.2733 76.6008C33.9568 78.502 33.9217 79.8574 34.1678 80.6672C34.3612 81.3009 34.2469 81.917 33.8249 82.5155L32.8491 83.8358C32.6909 84.1702 32.6645 84.4167 32.77 84.5751C32.981 84.8216 33.1656 85.1032 33.3239 85.4201C33.4821 85.7545 33.5612 86.177 33.5612 86.6875C33.5612 87.3036 33.6491 87.8493 33.8249 88.3246C34.0008 88.8703 34.3964 89.24 35.0118 89.4336C35.803 89.6801 36.3217 89.9265 36.5678 90.173L36.9898 90.7275C37.5524 91.326 38.036 92.0917 38.4404 93.0247L38.7568 94.0281L38.9942 94.5034C39.0997 94.5386 39.2052 94.4418 39.3107 94.2129L39.5744 93.2624C39.6272 92.8927 39.5832 92.4526 39.4426 91.9421L38.9415 90.437L38.3876 89.064L38.0711 88.0078L38.0975 87.374L38.3085 87.0836C38.4492 86.8723 38.5195 86.6611 38.5195 86.4499L38.3876 85.4729C38.3349 85.1912 38.3437 85.0416 38.414 85.024C38.5722 84.9888 38.792 85.2969 39.0733 85.9482C39.3371 86.5115 39.4426 86.9692 39.3898 87.3212V88.2454C39.7766 89.3368 40.1722 89.8473 40.5766 89.7769C40.8755 89.7241 40.9459 89.3896 40.7876 88.7735L40.6558 86.9252C40.6558 86.4323 40.7788 86.0098 41.025 85.6577C41.4118 85.1472 41.658 84.7071 41.7635 84.3375C42.1503 82.982 42.3085 81.6882 42.2382 80.4559C42.2206 80.0511 42.1151 79.5318 41.9217 78.898C41.6755 78.0707 41.9217 78.0971 42.6602 78.9773C43.2052 79.699 43.5745 80.4912 43.7679 81.3537C44.0843 82.8324 44.4448 83.8182 44.8492 84.3111C44.9723 84.4519 45.1657 84.5927 45.4294 84.7335C45.7283 84.892 45.9745 84.9624 46.1679 84.9448L46.4844 84.7335L46.5635 84.4431L46.1943 81.6706C46.1415 80.8784 46.1942 80.4823 46.3525 80.4823C46.4404 80.4823 46.5371 80.6496 46.6426 80.984L47.0118 82.1723C47.4338 83.5101 47.7855 84.3463 48.0668 84.6807L49.069 85.6049L50.0712 86.2122C50.3877 86.3354 50.6251 86.4587 50.7833 86.5819C50.9943 86.7579 51.1701 87.022 51.3108 87.374C51.5745 87.9726 51.6009 88.5623 51.3899 89.1432L50.6514 90.3578L50.0448 91.3876C49.9217 91.7045 49.913 92.0389 50.0184 92.391C50.0888 92.5846 50.3349 92.8487 50.7569 93.1831L52.524 94.1865C53.3328 94.4858 53.9569 94.8466 54.3965 95.2691C54.836 95.7268 54.5635 97.1263 53.5789 99.4675C53.4031 99.8196 53.1569 99.9516 52.8404 99.8636L51.9965 99.4675C51.5569 99.2563 51.1789 99.1507 50.8624 99.1507C50.5108 99.1507 49.913 99.4147 49.069 99.9428C48.2778 100.418 47.7591 100.797 47.5129 101.078C47.2668 101.342 47.091 101.844 46.9855 102.583C46.88 103.27 46.88 103.789 46.9855 104.141L47.3547 104.801C47.4602 104.977 47.4426 105.127 47.302 105.25L46.7745 105.752C46.5987 105.91 46.414 105.972 46.2206 105.937L45.5085 105.699L44.48 105.593L43.8997 107.151L44.1635 107.099C44.5679 107.011 45.0778 107.292 45.6931 107.944L47.0646 109.185C47.6096 109.325 48.6646 108.876 50.2294 107.838C50.5108 107.644 50.6426 107.389 50.625 107.072C50.5899 106.562 50.625 106.166 50.7305 105.884C50.8888 105.426 51.2053 105.074 51.68 104.828C52.2954 104.599 52.7877 104.379 53.1569 104.168L55.1613 104.273L57.0602 105.039C57.4998 105.145 57.9657 104.845 58.4581 104.141C58.8273 103.596 59.135 102.962 59.3811 102.24L59.7767 100.841C59.8471 100.4 59.7504 99.9692 59.4866 99.5467C59.2405 99.1419 59.0998 98.1649 59.0646 96.6158L59.1174 93.3416C59.1174 92.7607 58.9152 92.1797 58.5108 91.5988L57.2976 89.6713C56.9811 89.02 56.8932 88.3422 57.0339 87.6381C57.2273 86.6347 57.3152 85.9746 57.2976 85.6577C57.2624 85.1824 56.9899 84.3023 56.48 83.0172C56.0053 81.8378 55.7943 81.0104 55.8471 80.5352C55.8822 80.0599 56.1899 79.0301 56.7701 77.4458C57.3679 75.7735 57.7108 74.6909 57.7987 74.198C57.9042 73.5466 57.9482 72.8249 57.9306 72.0328L57.9042 71.0294L57.7723 71.5311C57.6317 71.9535 57.4295 72.3936 57.1657 72.8513C56.9547 73.2386 56.5943 73.6435 56.0844 74.0659C55.5218 74.5236 55.1174 74.9373 54.8712 75.307C54.6251 75.6766 54.458 76.1255 54.3701 76.6536C54.124 75.1749 54.0448 74.0747 54.1327 73.353C54.1855 72.8777 54.5371 72.3848 55.1877 71.8743L56.8229 70.7917C57.1745 70.5453 57.8427 69.982 58.8273 69.1018L60.2251 67.8608L58.9328 68.4945C58.0009 68.9522 57.3328 69.2338 56.9284 69.3395L55.7416 69.4187L54.6339 69.2074C53.913 69.1018 53.0954 69.5067 52.1811 70.4221C52.0053 70.5981 51.8734 70.959 51.7855 71.5047C51.68 72.0856 51.4514 72.6225 51.0998 73.1154C50.4492 73.9955 50.08 74.6821 49.9921 75.175C50.6426 70.9502 51.0119 68.3097 51.0998 67.2535C51.1525 66.5493 50.8624 65.4051 50.2294 63.8208C49.8075 62.7118 49.28 61.5412 48.647 60.3089C48.2954 59.6048 48.0316 58.223 47.8558 56.1634L47.6976 53.2588L47.3811 54.0246C47.1701 54.6583 47.0646 55.2568 47.0646 55.8201C47.0646 56.2954 46.9591 57.0875 46.7481 58.1965L46.3525 60.6786C46.2646 61.6468 46.1855 62.0517 46.1151 61.8932C45.869 61.5764 45.6228 61.0483 45.3767 60.3089C45.1305 59.5872 45.1745 58.1701 45.5085 56.0577L45.2448 57.1403L44.5327 59.2263C44.2866 59.772 44.2162 60.485 44.3217 61.3651L44.6382 63.6096C44.6909 64.2081 44.436 64.9386 43.8734 65.8012L42.4492 67.7552C41.9569 68.4769 41.6755 69.2866 41.6052 70.1844C41.2711 69.6211 41.025 68.9698 40.8667 68.2304L40.7085 66.3821C40.6733 65.4667 40.5678 64.6658 40.392 63.9792Z" fill="#E50020"/>
<path d="M110.019 162.575C112.34 160.885 114.476 159.09 116.428 157.189L118.669 154.812L98.1506 149.294C96.2166 152.938 93.755 156.203 90.766 159.09C86.0715 163.596 80.6912 166.448 74.6252 167.645C63.1087 169.898 52.1724 167.381 41.8163 160.093C39.6536 158.562 37.6317 156.661 35.7503 154.39C42.2383 163.702 50.0009 169.493 59.0384 171.764C62.8538 172.732 67.2318 173.181 72.1725 173.111L86.3879 172.028C94.7045 171.078 102.581 167.927 110.019 162.575Z" fill="#DDD583"/>
<path d="M95.9879 148.766L86.678 146.231C84.2868 150.579 80.6296 154.073 75.7065 156.714C70.6603 159.407 65.0954 160.753 59.0119 160.753C53.7196 160.753 48.7789 159.715 44.1898 157.638C39.7415 155.613 36.1546 152.858 33.4293 149.373C35.6975 153.492 38.6777 156.802 42.3701 159.301C52.5503 166.184 63.2493 168.525 74.4669 166.325C80.2516 165.181 85.2274 162.47 89.3945 158.192C91.7154 155.798 93.9132 152.656 95.9879 148.766Z" fill="#D18200"/>
<path d="M44.0052 103.243L44.3745 101.157L43.2931 102.108L42.3437 103.455L39.1525 107.759C36.392 111.702 34.1063 116.314 32.2953 121.595C30.5546 126.665 29.6843 131.057 29.6843 134.771C29.6843 139.946 30.9326 144.814 33.4293 149.373C36.1546 152.858 39.7415 155.613 44.1898 157.638C48.7789 159.715 53.7196 160.753 59.0119 160.753C65.0954 160.753 70.6603 159.407 75.7065 156.713C80.6296 154.073 84.2868 150.579 86.678 146.231L75.8384 143.3L75.2581 143.854C74.2735 144.523 72.3043 145.579 69.3504 147.023C65.0779 149.118 60.5943 149.461 55.8998 148.053C50.2382 146.363 45.4734 142.288 41.6052 135.827C39.1085 131.655 38.159 126.709 38.7568 120.988C39.1964 116.868 40.3832 112.582 42.3173 108.128C43.2843 105.91 44.1107 104.22 44.7964 103.059L45.0602 101.818L44.0052 103.243Z" fill="#F29600"/>
<path d="M91.0296 156.37C92.7176 154.346 94.3703 151.811 95.9879 148.766L75.8647 143.326L75.7856 143.458C75.6274 143.634 75.2493 143.898 74.6515 144.25C74.2999 145.799 74.1241 147.366 74.1241 148.95C74.1241 151.925 74.7131 154.76 75.8911 157.453C77.034 160.058 78.6428 162.347 80.7175 164.318C84.6384 162.54 88.0758 159.891 91.0296 156.37Z" fill="#D18200"/>
<path d="M113.527 159.856C114.581 158.06 115.373 156.133 115.9 154.073L98.1506 149.294C96.7264 152.022 94.933 154.583 92.7704 156.978C89.5528 160.604 85.8956 163.376 81.7989 165.295C83.6626 166.827 85.7022 168.006 87.9176 168.833C90.2385 169.696 92.6385 170.136 95.1176 170.154C101.693 168.059 107.83 164.626 113.527 159.856Z" fill="#DDD583"/>
<path d="M138.08 24.0021L145.755 32.5045C146.072 32.9446 146.23 34.1856 146.23 36.2276C146.23 38.5161 146.001 40.9013 145.544 43.3834C145.263 45.0029 144.63 47.0889 143.645 49.6413C142.643 52.2818 141.782 54.0422 141.061 54.9223L137.157 59.332L133.544 63.4247C132.999 64.2169 132.612 65.5283 132.384 67.3591C131.891 70.5805 131.487 72.6577 131.171 73.5907C130.731 74.8581 130.186 76.0815 129.535 77.261C129.061 78.1059 128.349 79.2413 127.399 80.6672C126.116 82.5507 124.63 84.3551 122.942 86.0802L121.781 85.6049L120.384 85.5257C119.909 85.6841 119.575 86.1242 119.381 86.846L119.039 88.6415L117.377 89.7505C117.043 89.9793 116.832 90.3138 116.744 90.7539C116.691 91.1588 116.788 91.5284 117.034 91.8629L120.885 96.8534L123.311 103.006C123.505 103.516 123.874 103.816 124.419 103.904C124.665 103.956 125.025 103.868 125.5 103.64L126.45 103.006C128.313 100.753 130.23 98.7106 132.199 96.8798C135.153 94.1513 137.509 92.6198 139.267 92.2854C140.551 92.0389 141.87 92.1446 143.223 92.6022C143.628 92.7607 144.683 93.2624 146.388 94.1073C147.443 94.6354 148.208 94.9611 148.683 95.0843C149.474 95.2955 150.177 95.2427 150.793 94.9259C151.303 94.6618 151.593 94.2129 151.663 93.5792L151.61 92.3646L151.478 91.7837C151.32 90.7627 151.566 89.6449 152.217 88.4303C152.639 87.6909 153.456 86.9428 154.67 86.1858C156.463 85.0416 158.476 84.4695 160.709 84.4695C165.861 84.4695 171.294 86.6171 177.008 90.9123C180.261 93.3416 183.074 95.9909 185.448 98.8602C185.536 99.5996 185.536 100.506 185.448 101.58L185.29 103.296C185.29 104.176 185.5 104.951 185.922 105.62C186.362 106.306 186.89 106.65 187.505 106.65C188.085 106.65 188.604 106.43 189.061 105.99C189.641 105.444 189.975 104.652 190.063 103.613L190.09 103.455C190.459 99.2651 190.696 95.9557 190.802 93.5264C190.872 91.8893 190.872 90.9035 190.802 90.5691C190.485 88.4038 189.782 84.98 188.692 80.2975C187.672 75.8967 186.749 72.2528 185.922 69.3659C185.202 66.831 184.041 63.3895 182.441 59.0415C180.947 54.9752 179.971 52.5371 179.514 51.7273C178.916 50.6535 176.525 47.6786 172.34 42.8025C168.208 37.9968 165.623 35.1714 164.586 34.3265C163.725 33.6223 162.353 32.8478 160.472 32.0028L158.784 31.2371C158.063 30.9026 157.623 30.6738 157.465 30.5506L150.924 25.4808L144.173 20.3318C142.854 19.3812 141.597 18.8091 140.401 18.6155C139.153 18.4219 138.221 18.6771 137.606 19.3812C137.149 19.9093 136.938 20.5959 136.973 21.4408C137.026 22.3914 137.395 23.2452 138.08 24.0021Z" fill="#0D131A"/>
<path d="M164.771 45.7862C160.92 42.512 158.67 40.7341 158.019 40.4524C157.14 40.3292 155.909 40.47 154.327 40.8749C152.727 41.2974 151.777 41.7462 151.478 42.2215C151.285 42.5912 150.168 45.9886 148.129 52.4139L146.678 56.7443C146.309 57.7124 143.733 60.2825 138.951 64.4545C138.335 65.0002 137.544 66.9278 136.577 70.2372L135.944 72.3496L134.705 77.1289L133.017 84.0734C132.647 85.4993 132.313 86.309 132.015 86.5027C130.836 87.3124 129.5 88.5711 128.006 90.2786C127.724 90.613 127.127 91.8981 126.212 94.1337L123.733 100.392L124.656 102.478C126.098 100.876 127.768 99.2211 129.667 97.5135C133.465 94.1161 136.507 92.2061 138.793 91.7837C140.973 91.3788 143.364 91.7661 145.966 92.9455L148.393 94.0809C149.149 94.3801 149.711 94.433 150.081 94.2393C150.274 94.1337 150.406 93.7728 150.476 93.1567L150.529 92.2854C150.406 92.0037 150.344 91.6164 150.344 91.1235C150.344 90.1554 150.634 89.1344 151.215 88.0606C151.707 87.1276 152.692 86.2562 154.168 85.4465C156.103 84.3727 158.309 83.8358 160.788 83.8358C165.782 83.8358 170.933 85.6401 176.243 89.2488C179.531 91.4844 182.591 94.1777 185.421 97.3287C185.228 90.217 185.017 86.2298 184.788 85.3673C184.032 82.2867 182.415 77.2257 179.936 70.1844C176.63 60.837 173.984 54.9047 171.997 52.3874C171.153 51.3312 168.744 49.1308 164.771 45.7862Z" fill="#008086"/>
<g filter="url(#filter0_d_32_2024)">
<path d="M139.452 23.3156C143.883 28.0333 146.529 30.929 147.39 32.0028C147.953 32.7246 148.138 34.4321 147.944 37.1254C147.821 38.9209 147.54 41.0069 147.1 43.3834C146.819 44.9853 146.107 47.1505 144.964 49.879C143.804 52.6251 142.801 54.5175 141.957 55.5561L134.731 64.0056C134.239 64.657 133.808 66.1004 133.439 68.3361C132.982 71.0822 132.63 72.8073 132.384 73.5114C131.927 74.8493 131.461 76.0375 130.986 77.0761L129.219 80.5088C128.568 81.7234 127.478 83.2549 125.948 85.1032C124.524 86.8107 123.672 87.7173 123.39 87.8229L122.441 87.5325C121.984 87.3036 121.623 87.2332 121.359 87.3212C120.867 87.4797 120.542 88.2102 120.384 89.5128L118.195 90.9651L122.151 96.1405L122.705 97.5135C124.832 92.7078 126.203 89.9617 126.819 89.2752C128.7 87.11 130.247 85.6225 131.461 84.8128C131.795 84.4255 132.647 81.5385 134.019 76.1519L135.285 71.2934L135.918 69.2074L136.894 66.118C137.28 65.1851 137.729 64.4897 138.239 64.0321L142.3 60.0713C144.269 58.0469 145.342 56.7971 145.518 56.3218L146.968 52.0442C149.289 45.0733 150.555 41.4294 150.766 41.1125C151.223 40.3556 152.41 39.7395 154.327 39.2642C156.067 38.8417 157.465 38.7097 158.52 38.8681C159.171 38.9737 161.623 40.8925 165.878 44.6244C169.993 48.2155 172.428 50.4951 173.184 51.4633C175.347 54.2094 178.089 60.5642 181.413 70.5277C183.083 75.5094 184.542 80.2711 185.791 84.8128C186.072 85.9746 186.309 90.5779 186.503 98.6226L186.74 103.296C186.74 103.701 186.819 104.053 186.977 104.352C187.136 104.634 187.311 104.775 187.505 104.775C187.751 104.775 187.927 104.705 188.032 104.564C188.226 104.352 188.349 103.948 188.402 103.349L188.744 97.9624L189.035 92.8135C189.017 90.9475 188.507 87.6117 187.505 82.806C186.626 78.5108 185.773 74.9901 184.947 72.244C183.716 68.1248 182.239 63.7152 180.516 59.0151C179.074 55.1424 178.16 52.854 177.773 52.1498C177.228 51.164 174.986 48.3387 171.048 43.6738C167.092 38.9737 164.63 36.2364 163.663 35.4619C162.854 34.8106 161.254 33.948 158.863 32.8742C157.667 32.3285 156.551 31.8532 155.513 31.4483L143.83 21.8105C142.863 21.0008 141.896 20.4462 140.929 20.147C139.927 19.8477 139.267 19.9181 138.951 20.3582C138.318 21.2736 138.485 22.2594 139.452 23.3156Z" fill="#F29600"/>
</g>
<path d="M152.059 48.5851C152.463 48.3915 153.061 48.2067 153.852 48.0306L155.804 47.7402C157.034 48.5851 159.267 50.3895 162.503 53.1532C165.914 56.0577 167.953 57.9325 168.621 58.7775C170.467 61.1187 173.026 66.875 176.296 76.0463C178.793 82.982 180.437 87.9901 181.228 91.0707L181.386 93.2887C182.722 94.5034 184.068 95.85 185.421 97.3287C185.228 90.217 185.017 86.2298 184.788 85.3673C184.032 82.2867 182.415 77.2257 179.936 70.1844C176.63 60.837 173.984 54.9047 171.997 52.3874C171.153 51.3312 168.744 49.1308 164.771 45.7862C160.92 42.512 158.67 40.7341 158.019 40.4524C157.14 40.3292 155.909 40.47 154.327 40.8749C152.727 41.2974 151.777 41.7462 151.478 42.2215C151.285 42.5912 150.168 45.9886 148.129 52.4139L146.678 56.7443C146.309 57.7124 143.733 60.2825 138.951 64.4545C138.335 65.0002 137.544 66.9278 136.577 70.2372L135.944 72.3496L134.705 77.1289L133.017 84.0734C132.647 85.4993 132.313 86.309 132.015 86.5027C130.836 87.3124 129.5 88.5711 128.006 90.2786C127.724 90.613 127.127 91.8981 126.212 94.1337L123.733 100.392L124.656 102.478L126.951 100.101C127.724 98.1649 128.225 97.0295 128.454 96.695C129.825 95.1107 130.977 94.0193 131.909 93.4208C132.524 92.9983 132.999 92.3382 133.333 91.4404C133.579 90.8067 133.975 89.3456 134.52 87.0572L135.601 82.5947L136.815 77.9739L137.474 75.7558C137.896 74.3124 138.309 72.5432 138.713 70.4484L139.188 67.7551L146.546 61.4179C147.795 60.2737 148.604 59.1559 148.973 58.0645L152.059 48.5851Z" fill="#00666C"/>
<path d="M3.62701 70.3164C3.02921 71.8479 2.28194 75.5534 1.38524 81.4329C0.523697 87.066 0.0929337 90.7891 0.0929337 92.6022V93.1831L0.17205 104.722C0.400627 106.887 1.31493 107.952 2.91493 107.917C3.61823 107.9 4.11932 107.574 4.41822 106.94C4.69954 106.342 4.84021 105.356 4.84021 103.983C4.84021 103.12 4.92812 102.328 5.10395 101.606C8.63803 98.1209 12.3479 94.6442 16.2337 91.1764C21.5084 86.4939 25.0425 83.7654 26.8359 82.9908C28.9986 82.0578 31.6799 81.653 34.8799 81.7762C37.4997 81.8994 39.3635 82.2339 40.4712 82.7796C40.9811 83.026 42.2294 84.3287 44.2162 86.6875L46.5108 89.196C47.0382 89.7065 47.5305 89.9881 47.9877 90.0409L48.9899 89.9089L50.5459 89.2488C53.2185 88.087 55.1702 87.3388 56.4009 87.0044C59.2669 86.2474 61.6933 86.2738 63.6801 87.0836C66.4933 88.2278 69.6318 89.9881 73.0955 92.3646C75.7329 94.1777 77.4999 95.5332 78.3966 96.4309C78.6955 96.7654 79.601 98.4113 81.1131 101.369L85.6494 110.32C85.878 110.742 86.3879 110.971 87.1791 111.006C87.7417 111.006 88.1813 110.769 88.4978 110.294L100.445 90.173C100.726 89.7153 100.744 89.2488 100.498 88.7735C100.234 88.2806 99.8385 88.0166 99.311 87.9814L94.2209 87.8493C93.4824 85.6841 92.8495 84.3991 92.322 83.9942C92.0231 83.783 91.4517 83.6069 90.6077 83.4661L88.1549 83.5189L83.9351 80.72L77.5263 76.0727C74.0274 73.397 71.0384 70.5013 68.5592 67.3855C68.1197 66.3469 67.4076 64.0144 66.423 60.3882C65.3856 56.5506 64.4098 52.5899 63.4955 48.5059C62.6515 44.7212 61.9482 40.9277 61.3856 37.1254C60.8757 33.6575 60.6471 31.4395 60.6998 30.4713C60.735 29.9432 61.2537 28.8958 62.2559 27.3291C63.346 25.604 64.8142 23.5796 66.6603 21.256C67.3988 20.3406 67.8823 19.3724 68.1109 18.3514C68.3922 17.1192 68.2164 16.0454 67.5834 15.13C67.1087 14.4435 66.5197 14.0386 65.8164 13.9154C65.0427 13.7922 64.19 13.9506 63.2581 14.3907C62.4669 14.7604 61.7372 15.2533 61.0691 15.8694L56.7702 20.015L52.6558 24.0021C52.5152 24.1253 51.8998 24.2926 50.8097 24.5038L48.647 24.9527C48.1371 25.1111 46.0888 26.1145 42.5019 27.9628L36.647 30.8674C34.9239 31.4131 33.1656 31.7916 31.3722 32.0028L29.2623 32.2933C28.4535 32.4341 27.9436 32.6101 27.7326 32.8214C26.5019 33.9832 24.0403 37.7591 20.348 44.1491L12.6468 57.7477C11.0644 60.4762 9.11275 63.3015 6.79186 66.2237L3.62701 70.3164Z" fill="#0D131A"/>
<path d="M9.85126 65.1939L7.37212 68.5473L5.34134 71.6367C4.76112 73.0977 3.98749 76.5568 3.02045 82.0138C2.05341 87.418 1.56989 90.9475 1.56989 92.6022V98.3849L1.64902 104.247C1.71935 104.863 1.83364 105.312 1.99189 105.593C2.20287 105.963 2.51057 106.139 2.91497 106.122C3.1787 106.104 3.3721 105.752 3.49518 105.065C3.58309 104.59 3.62704 104.062 3.62704 103.481L3.67979 101.131L5.47321 81.6706V81.5649C7.21387 75.1221 10.8447 67.051 16.3656 57.3516C21.3766 48.5675 25.3766 42.688 28.3656 39.7131C29.192 38.8681 32.8931 37.3454 39.469 35.145C45.5525 33.0854 48.7877 32.0556 49.1745 32.0556C50.2647 31.9676 51.3724 32.2052 52.4976 32.7686C53.6229 33.3495 54.4845 34.124 55.0823 35.0922C55.6801 36.0428 57.2801 41.4646 59.8823 51.3577C60.6559 54.3678 61.4911 58.8303 62.3878 64.745C62.8977 68.0896 63.2318 69.9203 63.39 70.2372C63.6713 70.7653 65.8691 72.508 69.9834 75.4654L72.99 77.6834C73.5879 78.1763 74.2208 78.9596 74.889 80.0335C75.2406 80.5792 75.7417 81.4681 76.3923 82.7004L76.9725 83.783C77.0604 83.8886 77.5263 84.0382 78.3703 84.2318C80.0231 84.6367 81.3593 85.0152 82.3791 85.3673C83.7154 85.8249 85.4648 87.9902 87.6275 91.8629C89.0693 94.4506 90.5813 97.584 92.1638 101.263L99.2056 89.4336L93.1132 88.9583L92.5066 87.242C92.0495 86.0626 91.6627 85.3585 91.3462 85.1296C90.9066 84.8304 90.1682 84.6895 89.1308 84.7071L87.733 84.8128L82.7483 81.4329L76.656 77.2609C75.9351 76.7152 74.2208 75.1309 71.5131 72.508C68.823 69.8851 67.4076 68.4241 67.2669 68.1248C66.3702 66.1884 64.7087 59.9041 62.2823 49.2717C59.7856 38.2872 58.6339 31.818 58.8273 29.864C58.8977 29.1775 59.8823 27.5052 61.7812 24.8471L65.368 20.147C65.8779 19.5133 66.2296 18.7827 66.423 17.9554C66.6516 17.0752 66.6164 16.3711 66.3175 15.843C66.0186 15.3325 65.4208 15.2533 64.5241 15.6053C63.7329 15.9046 62.9241 16.4327 62.0977 17.1896L57.8251 21.5464L53.8954 25.5336L51.6537 25.9033L48.5679 26.5634C47.8471 26.8098 44.102 28.5614 37.3327 31.818L32.7437 33.1118C30.4052 33.7103 29.1393 34.0976 28.9459 34.2736C27.2755 35.8755 23.6887 41.3766 18.1854 50.7767L9.85126 65.1939Z" fill="#F29600"/>
<path d="M6.36987 81.8818L4.73469 100.101C8.39185 96.651 11.8996 93.4648 15.2578 90.5426C20.6908 85.825 24.3831 83.0436 26.3348 82.1987C28.7084 81.1777 31.5744 80.7816 34.9327 81.0104C37.6052 81.1865 39.6096 81.609 40.9459 82.2779C41.5261 82.5595 42.7569 83.739 44.6382 85.8162C46.3789 87.7173 47.5833 88.7295 48.2514 88.8527C48.6558 88.9407 49.447 88.7471 50.625 88.2718L54.291 86.7931C57.9833 85.4905 61.1921 85.3937 63.9174 86.5027C66.9416 87.7525 70.2383 89.4512 73.8076 91.5988C76.8142 93.412 78.6955 94.6794 79.4516 95.4012C79.9087 95.8588 81.3417 98.3497 83.7505 102.874L87.2318 109.528L90.845 103.719C88.278 97.3287 86.8538 93.8169 86.5725 93.1831C84.8846 89.416 83.5219 87.3564 82.4846 87.0044C81.7461 86.7403 80.2867 86.3795 78.1065 85.9218L76.7878 85.5785L75.9966 84.9976L75.3109 83.7566L74.0977 80.9576C73.5175 79.7078 72.99 78.8805 72.5153 78.4756L71.1702 77.6306L69.2713 76.4424L64.5504 72.9569C63.2669 71.9535 62.5196 71.2318 62.3086 70.7917L61.8339 68.917L61.2009 64.9298L60.3042 58.6454C59.8998 55.9697 59.469 53.7605 59.0119 52.0178L56.1899 41.2446C55.3459 38.1112 54.8273 36.3861 54.6339 36.0692C54.1591 35.3299 53.3327 34.7401 52.1547 34.3001C51.0822 33.8776 50.08 33.7104 49.1481 33.7984C48.269 33.9392 45.069 34.9602 39.5481 36.8613C33.5173 38.9209 30.1678 40.2852 29.4997 40.9541C26.4403 44.0347 22.4139 49.7734 17.4205 58.1702C11.7413 67.7111 8.05779 75.615 6.36987 81.8818Z" fill="#008086"/>
<path d="M9.03361 96.1141L9.7457 88.219C11.3985 82.1459 14.9941 74.462 20.5326 65.1675C25.3854 57.0523 29.2535 51.5249 32.137 48.5851C32.9986 47.9866 36.0228 46.7984 41.2096 45.0205C45.8514 43.4362 48.9371 42.4504 50.4668 42.0631C50.9943 42.0455 51.5745 42.1599 52.2075 42.4064C52.8404 42.6352 53.2712 42.8817 53.4998 43.1457C53.7635 43.8499 54.8536 47.8634 56.7701 55.1864L57.6141 58.487C58.1767 60.617 58.7482 63.812 59.3284 68.072L59.7504 71.135L60.5152 75.6502C60.691 76.6008 60.8932 77.2873 61.1218 77.7098C61.4383 78.3611 62.1416 79.1445 63.2317 80.0599L68.8229 84.2847L71.0647 85.6841L71.935 86.2122C78.2296 91.8805 81.7637 94.8467 82.5373 95.1107C83.5219 95.9205 85.4824 100.084 88.4187 107.6V107.627L90.845 103.719C88.278 97.3287 86.8538 93.8169 86.5725 93.1831C84.8846 89.416 83.5219 87.3564 82.4846 87.0044C81.7461 86.7403 80.2867 86.3795 78.1065 85.9218L76.7878 85.5785L75.9966 84.9976L75.3109 83.7566L74.0977 80.9576C73.5175 79.7078 72.99 78.8805 72.5153 78.4756L71.1702 77.6306L69.2713 76.4424L64.5504 72.9569C63.2669 71.9535 62.5196 71.2318 62.3086 70.7917L61.8339 68.917L61.2009 64.9298L60.3042 58.6454C59.8998 55.9697 59.469 53.7605 59.0119 52.0178L56.1899 41.2446C55.3459 38.1112 54.8273 36.3861 54.6339 36.0692C54.1591 35.3299 53.3327 34.7401 52.1547 34.3001C51.0822 33.8776 50.08 33.7104 49.1481 33.7984C48.269 33.9392 45.069 34.9602 39.5481 36.8613C33.5173 38.9209 30.1678 40.2852 29.4997 40.9541C26.4403 44.0347 22.4139 49.7734 17.4205 58.1702C11.7413 67.7111 8.05779 75.615 6.36987 81.8818L4.73469 100.101L9.03361 96.1141Z" fill="#00666C"/>
<path d="M169.808 101.527L170.336 101.421L171.259 100.761C171.874 100.057 172.138 99.1859 172.05 98.1473C171.997 97.4431 171.355 96.2901 170.125 94.6882C169.105 93.3504 168.34 92.4702 167.83 92.0477L167.619 91.8629L168.674 88.9847L168.832 88.6679C169.078 88.1574 169.219 87.7085 169.254 87.3212C169.289 86.8283 169.193 86.2738 168.964 85.6577C168.542 84.6191 167.821 83.8886 166.802 83.4661C166.098 83.1845 165.096 83.0612 163.795 83.0964L161.764 83.3341C161.166 83.5805 160.191 84.6631 158.837 86.5819L158.388 86.7667L157.808 86.9252L155.856 86.001C154.96 85.3321 154.3 84.9184 153.878 84.76C153.316 84.5487 152.683 84.5399 151.979 84.7335C151.012 84.98 150.186 85.9042 149.5 87.5061C148.903 88.9319 148.692 90.0586 148.867 90.8859C148.938 91.2556 149.175 91.8629 149.579 92.7079L150.766 95.0315L151.056 95.5596L150.977 96.1669C147.443 99.3531 145.14 100.805 144.067 100.524L142.01 100.022C140.621 99.67 139.302 99.2299 138.054 98.7018C135.997 97.8392 134.239 96.9767 132.779 96.1141C132.357 95.0051 132.006 94.2393 131.724 93.8169C131.004 92.7959 129.949 91.9861 128.56 91.3876C127.382 90.8771 125.465 90.5955 122.81 90.5426C121.245 90.5074 119.856 90.5338 118.643 90.6219L116.691 90.8067L123.443 105.329L124.445 105.145L129.008 103.666L132.015 105.171L136.234 107.204L138.028 108.155L139.557 109.079C141.228 109.959 142.546 110.443 143.514 110.531C145.729 110.69 148.41 109.827 151.558 107.944C153.509 106.764 155.514 105.285 157.571 103.507C158.221 103.877 158.81 104.071 159.338 104.088C160.076 104.124 160.885 103.886 161.764 103.375C162.274 103.094 162.837 102.548 163.452 101.738L164.639 99.9692L165.272 101.263L165.72 101.738L169.808 101.527Z" fill="#0D131A"/>
<path d="M169.755 100.154C169.966 100.154 170.169 100.075 170.362 99.9164C170.766 99.5995 170.942 99.0714 170.889 98.3321C170.854 97.804 170.661 97.2583 170.309 96.695L168.964 94.9787L167.276 93.368L166.221 92.4174C166.028 92.1181 166.432 90.7979 167.434 88.4566C167.892 87.4004 168.12 86.6963 168.12 86.3442C168.138 85.5169 167.566 84.8656 166.406 84.3903L163.98 84.2582L162.212 84.5487L161.105 85.8161L159.944 87.374C159.593 87.8669 158.968 88.1486 158.072 88.219L155.566 87.0044C154.968 86.5467 154.45 86.2738 154.01 86.1858L152.533 86.3178C151.988 86.4587 151.461 87.1452 150.951 88.3774C150.476 89.5392 150.292 90.3754 150.397 90.8859C150.467 91.2732 150.757 91.9773 151.267 92.9983L152.27 94.9787C152.516 95.4716 152.481 96.1229 152.164 96.9326L148.815 99.5995C146.335 101.325 144.472 102.02 143.223 101.686L140.771 100.841L137.078 99.4147L131.645 97.1175C131.557 96.6422 131.32 96.0965 130.933 95.4804C130.142 94.2481 128.946 93.2887 127.346 92.6022C126.274 92.1445 124.516 91.9069 122.072 91.8893L118.749 91.9949L124.234 103.824L128.111 101.791C131.733 103.675 134.617 105.057 136.762 105.937C137.535 106.271 138.863 106.923 140.744 107.891C141.975 108.542 142.88 108.885 143.461 108.92C145.465 109.079 147.988 108.234 151.03 106.386C152.894 105.241 154.793 103.833 156.727 102.161C156.797 102.108 156.709 101.862 156.463 101.421L156.067 100.761L157.465 101.738C157.711 102.02 158.063 102.231 158.52 102.372C159.417 102.671 160.401 102.522 161.474 101.923C162.388 101.395 163.153 100.638 163.769 99.6523L164.401 98.3321L166.274 100.339L169.755 100.154Z" fill="#F29600"/>
<path d="M152.586 91.3612L154.722 92.655C155.918 93.2359 156.744 93.5352 157.201 93.5528C157.483 93.5528 157.72 93.4736 157.914 93.3152C158.248 92.9631 158.292 92.0653 158.045 90.6219C157.817 89.284 157.544 88.351 157.228 87.8229C156.806 87.1716 156.234 86.6963 155.514 86.3971L153.483 86.3178C152.867 86.5467 152.419 86.9692 152.138 87.5853C151.892 88.1134 151.821 88.6855 151.927 89.3016L151.979 89.6713C152.085 90.4634 152.287 91.0267 152.586 91.3612Z" fill="#0D131A"/>
<path d="M153.562 86.5291L155.434 86.6347C156.103 86.9164 156.63 87.3564 157.017 87.955C157.316 88.4302 157.58 89.3192 157.808 90.6219C158.037 92.0125 158.01 92.8487 157.729 93.1303C157.606 93.2536 157.439 93.3152 157.228 93.3152C156.806 93.2976 156.006 93.0071 154.828 92.4438C153.685 91.8805 152.999 91.4668 152.771 91.2028C152.489 90.8859 152.305 90.3666 152.217 89.6449L152.164 89.2752C152.076 88.6943 152.138 88.1574 152.349 87.6645C152.595 87.1188 152.999 86.7403 153.562 86.5291ZM157.439 87.6909C156.982 86.9868 156.366 86.4851 155.593 86.1858L153.404 86.0802C152.823 86.309 152.375 86.6875 152.059 87.2156C151.777 87.6909 151.637 88.219 151.637 88.7999L151.742 89.7241C151.848 90.5514 152.067 91.15 152.401 91.5196C152.665 91.8365 153.404 92.2854 154.617 92.8663C155.865 93.4648 156.727 93.7729 157.201 93.7905C157.553 93.8081 157.843 93.7024 158.072 93.4736C158.476 93.0687 158.547 92.1005 158.283 90.569C158.054 89.2136 157.773 88.2542 157.439 87.6909Z" fill="#0D131A"/>
<path d="M153.931 89.9881C154.248 90.3754 155.426 91.3084 157.465 92.7871C157.623 92.6286 157.632 91.9509 157.492 90.7539C157.333 89.5392 157.122 88.6855 156.859 88.1926C156.56 87.6821 156.138 87.2948 155.593 87.0308C155.03 86.7491 154.511 86.6963 154.037 86.8723C153.527 87.0484 153.175 87.4004 152.982 87.9285C153.034 88.4214 153.149 88.8351 153.324 89.1696L153.931 89.9881Z" fill="white"/>
<path d="M153.298 90.7539C153.492 91.0003 154.186 91.4316 155.382 92.0477C156.63 92.6815 157.325 92.9279 157.465 92.7871C155.426 91.3084 154.248 90.3754 153.931 89.9881L153.325 89.1696C153.149 88.8351 153.034 88.4215 152.982 87.9286C152.859 88.263 152.815 88.6239 152.85 89.0112L152.982 90.0145L153.298 90.7539Z" fill="#DBDCDC"/>
<path d="M170.151 98.0417C169.799 97.7424 169.298 97.5312 168.648 97.4079C167.962 97.2847 167.364 97.4255 166.854 97.8304C166.503 98.1121 166.256 98.4641 166.116 98.8866L164.744 101.052C164.551 101.263 164.199 101.457 163.689 101.633L162.872 101.87L163.241 102.636C163.628 103.428 164.753 103.772 166.617 103.666L168.753 103.375C169.492 103.147 170.081 102.707 170.52 102.055C170.819 101.615 171.004 101.113 171.074 100.55C171.144 100.004 171.083 99.5291 170.889 99.1243L170.81 98.9922C170.634 98.5874 170.415 98.2705 170.151 98.0417Z" fill="#0D131A"/>
<path d="M170.072 98.1473C170.3 98.3409 170.511 98.6314 170.705 99.0186L170.784 99.1771C170.96 99.5643 171.021 100.022 170.969 100.55C170.898 101.096 170.722 101.58 170.441 102.002C170.002 102.619 169.43 103.032 168.727 103.243L166.617 103.534C164.788 103.64 163.707 103.323 163.373 102.583L163.03 101.95L163.716 101.738C164.278 101.545 164.656 101.342 164.85 101.131C165.096 100.849 165.544 100.145 166.195 99.0186L166.221 98.9922L166.3 98.8602C166.441 98.4553 166.678 98.1209 167.012 97.8568C167.47 97.5048 168.015 97.3903 168.648 97.5136C169.263 97.6368 169.738 97.848 170.072 98.1473ZM170.626 102.134C171.03 101.536 171.232 100.885 171.232 100.18C171.232 99.758 171.153 99.3883 170.995 99.0715L170.916 98.9394C170.705 98.4994 170.476 98.1737 170.23 97.9624C169.861 97.628 169.342 97.3991 168.674 97.2759C168.006 97.1527 167.426 97.2759 166.933 97.6456C166.564 97.9096 166.283 98.2705 166.089 98.7282L164.665 100.973C164.489 101.184 164.147 101.36 163.637 101.501L162.845 101.765L162.766 101.818L162.74 101.87L163.136 102.689C163.54 103.516 164.7 103.877 166.617 103.772L168.78 103.481C169.553 103.235 170.169 102.786 170.626 102.134Z" fill="#0D131A"/>
<path d="M170.204 99.4411L169.782 98.781C169.518 98.5346 169.122 98.3673 168.595 98.2793C168.05 98.1737 167.619 98.3145 167.303 98.7018C167.127 98.8778 167.013 99.0715 166.96 99.2827L166.38 100.26L165.483 101.58C165.202 101.897 164.744 102.152 164.111 102.346C167.276 102.803 169.307 101.835 170.204 99.4411Z" fill="white"/>
<path d="M169.966 101.686C170.195 101.351 170.336 100.973 170.388 100.55C170.423 100.163 170.38 99.8372 170.256 99.5732L170.204 99.4411C169.307 101.835 167.276 102.803 164.111 102.346C164.164 102.469 164.322 102.583 164.586 102.689L166.722 102.927L168.569 102.715C169.149 102.539 169.615 102.196 169.966 101.686Z" fill="#DBDCDC"/>
<path d="M164.085 86.265C163.54 86.8812 163.311 87.5941 163.399 88.4038C163.452 89.1256 163.672 89.6361 164.059 89.9353L165.193 90.9915L166.327 92.259C166.538 92.5934 166.661 93.1479 166.696 93.9225L166.881 94.609L167.645 94.5826C168.103 94.4418 168.542 94.1689 168.964 93.7641C169.808 92.9367 170.23 91.8189 170.23 90.4106C170.23 89.0728 169.659 87.6293 168.516 86.0802C168.375 85.8866 168.085 85.7017 167.645 85.5257C167.241 85.3849 166.863 85.3057 166.511 85.2881C165.527 85.2352 164.718 85.5609 164.085 86.265Z" fill="#0D131A"/>
<path d="M168.727 85.9482C168.551 85.7017 168.217 85.4905 167.725 85.3144L166.538 85.0504C165.448 84.9976 164.568 85.3496 163.9 86.1066C163.338 86.7579 163.083 87.5325 163.136 88.4302C163.223 89.2048 163.478 89.7769 163.9 90.1465L165.008 91.1499C165.606 91.7485 165.975 92.1621 166.116 92.391C166.309 92.6726 166.423 93.2007 166.459 93.9753L166.643 94.6618L166.722 94.7938L167.645 94.8202H167.698C168.138 94.7322 168.612 94.433 169.122 93.9225C170.019 93.0599 170.467 91.8893 170.467 90.4106C170.467 89.0551 169.887 87.5677 168.727 85.9482ZM165.351 90.8331L164.217 89.7505C163.883 89.504 163.689 89.0463 163.637 88.3774L163.61 88.1662C163.61 87.5325 163.83 86.9515 164.27 86.4234C164.815 85.8073 165.562 85.5081 166.511 85.5257L167.54 85.7633L168.331 86.2386C169.439 87.7525 169.993 89.1432 169.993 90.4106C169.993 91.7132 169.615 92.7518 168.859 93.5264C168.454 93.9489 168.032 94.2217 167.593 94.3449L167.065 94.3713L166.933 93.8961C166.933 93.1391 166.801 92.5494 166.538 92.1269C166.379 91.8805 165.984 91.4492 165.351 90.8331Z" fill="#0D131A"/>
<path d="M165.14 89.0111L166.749 90.4634C167.452 91.3612 167.619 92.4262 167.25 93.6584V93.7904C167.584 93.6848 167.927 93.4648 168.278 93.1303C168.964 92.4438 169.307 91.502 169.307 90.305C169.307 89.6008 169.122 88.8263 168.753 87.9813C168.472 87.3476 168.155 86.8019 167.804 86.3442C167.575 86.0626 167.083 85.9218 166.327 85.9218C165.483 85.9394 164.859 86.1858 164.454 86.6611L164.19 87.0044C164.366 87.8845 164.683 88.5535 165.14 89.0111Z" fill="white"/>
<path d="M164.322 89.2752C165.588 90.2258 166.406 90.9739 166.775 91.5196C167.021 91.9245 167.18 92.6374 167.25 93.6584C167.619 92.4262 167.452 91.3612 166.749 90.4634L165.14 89.0111C164.683 88.5535 164.366 87.8845 164.191 87.0044C163.944 87.4444 163.865 87.9197 163.953 88.4302C164.023 88.8527 164.147 89.1344 164.322 89.2752Z" fill="#DBDCDC"/>
<path d="M164.401 95.2955C164.401 94.0985 163.953 93.0159 163.056 92.0477C162.142 91.0795 161.105 90.5778 159.944 90.5426C161.263 92.2678 161.79 93.72 161.527 94.8995C161.351 95.6916 160.639 96.3605 159.39 96.9062C158.353 97.3639 157.333 97.6104 156.331 97.6456L157.492 98.9658C157.949 99.3531 158.485 99.5467 159.1 99.5467C160.384 99.5467 161.571 99.1419 162.661 98.3321C163.821 97.4519 164.401 96.4397 164.401 95.2955Z" fill="#D18200"/>
<path d="M160.525 91.3612C159.681 90.0233 159.188 89.4248 159.048 89.5657L160.129 91.4404C160.85 92.8311 161.122 93.9401 160.947 94.7674C160.788 95.4011 160.155 95.9909 159.048 96.5366C158.01 97.0471 157.052 97.3023 156.173 97.3023C155.557 97.3023 154.898 97.1527 154.195 96.8534L153.325 96.4573C154.116 97.2495 155.083 97.6456 156.226 97.6456C157.21 97.6456 158.248 97.4079 159.338 96.9326C160.621 96.3869 161.351 95.7092 161.527 94.8994C161.738 93.9665 161.404 92.7871 160.525 91.3612Z" fill="#0D131A"/>
<path d="M131.144 119.086L129.694 118.4L112.603 157.532L114.74 157.796C116.023 157.955 117.122 158.175 118.036 158.456C118.441 158.597 119.197 159.081 120.305 159.908L122.019 161.044C121.491 161.783 121.078 162.822 120.779 164.16C120.498 165.41 120.428 166.263 120.568 166.721C120.744 167.337 121.069 167.874 121.544 168.332C121.984 168.754 122.467 169.045 122.995 169.203C124.982 169.626 126.564 170.083 127.742 170.576C128.498 170.875 129.632 171.527 131.144 172.53L133.333 174.088L134.204 174.933C134.643 175.232 135.179 175.435 135.812 175.54C136.34 175.628 137.219 175.479 138.45 175.091L140.401 175.54L142.485 176.068C143.417 176.385 144.226 176.702 144.911 177.019L145.94 177.521C146.467 177.767 146.854 177.864 147.1 177.811C147.47 177.723 147.61 177.345 147.522 176.676C147.434 176.042 147.197 175.294 146.81 174.431L146.256 173.322L151.056 173.56C151.654 173.665 152.226 173.824 152.771 174.035L153.931 174.537L154.907 174.616C155.083 174.51 155.144 174.326 155.092 174.062C155.021 173.498 154.845 172.891 154.564 172.24C154.019 170.919 153.158 169.714 151.979 168.622L154.037 168.569C155.021 168.587 155.812 168.728 156.41 168.992C157.307 169.414 157.571 169.027 157.201 167.83C156.903 166.862 155.997 165.788 154.485 164.609C153.641 163.975 152.727 163.42 151.742 162.945C150.916 162.54 150.221 162.276 149.659 162.153L149.395 162.1L148.788 162.047L145.518 159.988C144.604 159.354 143.716 158.588 142.854 157.69L141.641 156.212L141.377 154.997L142.933 153.835C143.76 153.184 144.41 152.542 144.885 151.908C146.714 149.443 147.768 147.278 148.05 145.412C148.56 141.909 147.373 137.693 144.489 132.764C142.555 129.437 139.505 126.022 135.338 122.519C131.997 119.984 130.599 118.84 131.144 119.086Z" fill="#0D131A"/>
<path d="M134.784 123.39C133.746 122.528 132.727 121.797 131.724 121.199L130.511 120.539L114.951 156.212C116.305 156.37 117.491 156.608 118.511 156.925C119.056 157.101 119.751 157.55 120.595 158.271C121.544 159.081 122.274 159.609 122.784 159.856C123.083 160.014 123.549 160.305 124.182 160.727L125.026 161.308L124.287 161.414C123.777 161.484 123.434 161.572 123.258 161.678C123.047 161.818 122.828 162.276 122.599 163.051L122.124 165.242C122.476 165.806 123.267 166.342 124.498 166.853C125.377 167.205 126.309 167.496 127.294 167.724C128.208 167.936 129.193 168.244 130.248 168.649C131.496 169.106 132.454 169.564 133.122 170.022L135.1 171.263C135.733 171.615 136.296 171.817 136.788 171.87L138.107 173.85C139.654 173.34 141.421 172.574 143.408 171.553C145.536 170.444 147.162 169.414 148.287 168.464C149.571 167.39 150.309 166.378 150.503 165.427L150.397 164.318L144.437 160.595C143.399 159.873 142.45 159.028 141.588 158.06C140.92 157.303 140.498 156.713 140.322 156.291L140.217 155.552L139.188 155.869L136.393 156.08L137.843 155.763L138.977 155.34C139.259 155.252 139.619 155.076 140.059 154.812L140.665 154.416C141.263 154.029 142.124 153.078 143.25 151.565C144.656 149.716 145.509 147.648 145.808 145.359C146.318 141.715 145.412 137.772 143.092 133.53C140.859 129.464 138.089 126.084 134.784 123.39Z" fill="#F29600"/>
<path d="M124.498 166.853C123.267 166.343 122.476 165.806 122.124 165.242C122.036 165.982 122.019 166.431 122.072 166.589C122.283 167.135 122.687 167.575 123.285 167.909L124.762 168.464L127.927 169.441C128.296 169.511 129.219 169.995 130.696 170.893L133.412 172.583L134.494 173.507C134.951 173.894 135.496 174.141 136.129 174.246C136.48 174.299 137.14 174.167 138.107 173.85L136.788 171.87C136.296 171.817 135.733 171.615 135.1 171.263L133.122 170.022C132.454 169.564 131.496 169.106 130.247 168.649C129.192 168.244 128.208 167.936 127.294 167.724C126.309 167.496 125.377 167.205 124.498 166.853Z" fill="#D18200"/>
<path d="M138.713 156.898C139.065 156.669 139.215 156.52 139.162 156.449L138.634 156.608L137.527 156.978L136.076 157.11L135.258 157.215L136.05 157.426L137.5 157.374C137.905 157.303 138.309 157.145 138.713 156.898Z" fill="#0D131A"/>
<path d="M130.59 153.651C132.612 150.676 133.623 147.357 133.623 143.696C133.623 140.827 132.982 138.133 131.698 135.616C130.45 133.187 128.744 131.18 126.581 129.596L114.951 156.212C116.305 156.37 117.491 156.608 118.511 156.925C119.056 157.101 119.751 157.55 120.595 158.271C121.544 159.081 122.274 159.609 122.784 159.856L122.81 159.882C126.01 158.65 128.603 156.573 130.59 153.651Z" fill="#D18200"/>
<path d="M148.894 163.13C148.648 163.059 148.437 163.165 148.261 163.447C148.067 163.746 147.935 164.195 147.865 164.793C147.777 165.656 147.865 166.677 148.129 167.856H153.799C154.397 167.892 155.109 168.05 155.935 168.332L156.99 168.754C157.061 168.543 156.999 168.235 156.806 167.83C156.437 167.038 155.628 166.175 154.379 165.242C153.535 164.609 152.428 164.089 151.056 163.684L148.894 163.13Z" fill="white"/>
<path d="M151.426 166.747C149.474 166.607 148.419 166.334 148.261 165.929H148.234L148.419 167.487L153.826 167.513C154.388 167.531 155.021 167.654 155.724 167.883C154.617 167.267 153.184 166.888 151.426 166.747Z" fill="#DBDCDC"/>
<path d="M149.316 162.866L148.999 162.787L148.287 162.892C147.865 163.174 147.601 163.799 147.496 164.767V165.955L148.234 165.929V164.846C148.305 164.142 148.454 163.693 148.683 163.5C148.999 163.288 149.782 163.42 151.03 163.896C152.261 164.353 153.307 164.899 154.168 165.533C155.487 166.519 156.287 167.399 156.568 168.173L155.724 167.883L155.197 168.49L156.859 169.097H157.149C157.272 169.045 157.342 168.965 157.36 168.86C157.412 168.508 157.342 168.129 157.149 167.724C156.762 166.862 155.909 165.938 154.59 164.952C153.43 164.089 151.672 163.394 149.316 162.866Z" fill="#0D131A"/>
<path d="M153.799 168.226L155.197 168.49L155.724 167.883C155.021 167.654 154.388 167.531 153.826 167.513L148.419 167.487L148.234 165.929L147.496 165.955L147.76 167.936C147.812 168.129 147.935 168.226 148.129 168.226H153.799Z" fill="#0D131A"/>
<path d="M149.184 171.342C151.153 171.87 152.709 172.609 153.852 173.56L153.404 173.718L154.617 174.246C154.652 173.894 154.564 173.445 154.353 172.9C153.966 171.791 153.201 170.726 152.059 169.705C151.267 169.018 150.151 168.226 148.709 167.328L146.441 166.008C146.177 165.85 145.729 166.07 145.096 166.668C144.393 167.302 143.927 168.015 143.698 168.807L143.566 169.309L144.648 170.18C145.122 170.462 145.553 170.638 145.94 170.708L149.184 171.342Z" fill="white"/>
<path d="M150.793 172.847C151.302 172.935 152.173 173.225 153.404 173.718L153.852 173.56C152.709 172.609 151.153 171.87 149.184 171.342L145.94 170.708C145.553 170.638 145.122 170.462 144.647 170.18L143.566 169.309C143.338 170.347 143.294 171.333 143.434 172.266L150.793 172.847Z" fill="#DBDCDC"/>
<path d="M154.142 173.533L153.852 173.507C152.41 172.909 151.408 172.565 150.845 172.477L143.777 171.923C143.672 170.831 143.76 169.828 144.041 168.913C144.234 168.244 144.621 167.619 145.201 167.038C145.694 166.563 146.054 166.325 146.283 166.325L146.415 166.404C148.946 167.83 150.749 169.018 151.821 169.969C152.999 171.007 153.755 172.099 154.089 173.243L154.142 173.533ZM153.008 173.956C153.922 174.326 154.406 174.537 154.459 174.59L154.801 174.563L154.986 174.273C155.004 173.868 154.907 173.366 154.696 172.768C154.291 171.606 153.491 170.497 152.296 169.441C151.171 168.42 149.333 167.196 146.784 165.77L146.626 165.691C146.45 165.586 146.195 165.586 145.861 165.691C145.439 165.867 144.973 166.246 144.463 166.827C143.883 167.46 143.469 168.129 143.223 168.833C142.889 169.784 142.757 170.638 142.828 171.395L143.065 172.319C143.1 172.495 143.215 172.6 143.408 172.636L150.713 173.19C151.206 173.261 151.971 173.516 153.008 173.956Z" fill="#0D131A"/>
<path d="M141.298 169.493C141.087 169.317 140.516 169.458 139.584 169.916C138.599 170.391 137.913 170.911 137.527 171.474L137.421 171.659L137.87 171.421C137.87 172.055 138.186 172.521 138.819 172.821L141.957 174.141C143.874 175.003 145.166 175.76 145.834 176.412L145.597 176.623L146.547 177.045C146.687 176.816 146.731 176.491 146.678 176.068C146.608 175.223 146.133 174.352 145.254 173.454C143.197 171.289 141.878 169.969 141.298 169.493Z" fill="white"/>
<path d="M136.894 173.639L142.063 175.303C142.924 175.584 144.102 176.024 145.597 176.623L145.834 176.412C145.166 175.76 143.874 175.003 141.957 174.141L138.819 172.821C138.186 172.521 137.869 172.055 137.869 171.421L137.421 171.659C136.964 172.416 136.788 173.076 136.894 173.639Z" fill="#DBDCDC"/>
<path d="M137.843 171.685C138.16 171.21 138.74 170.752 139.584 170.312C140.322 169.925 140.832 169.749 141.113 169.784L145.017 173.718C145.826 174.546 146.265 175.338 146.335 176.095C146.371 176.394 146.221 176.482 145.887 176.359L142.195 174.959L139.188 174.035L137.368 173.349C137.193 172.926 137.351 172.372 137.843 171.685ZM141.535 169.203C141.395 169.097 141.166 169.053 140.85 169.071C140.322 169.141 139.689 169.388 138.951 169.81C138.16 170.268 137.588 170.752 137.236 171.263C136.762 171.967 136.498 172.618 136.445 173.217C136.393 173.621 136.445 173.921 136.604 174.114C136.656 174.202 136.85 174.273 137.184 174.326L138.977 174.748L141.957 175.646C142.96 175.98 143.997 176.368 145.07 176.808L146.388 177.362C146.582 177.45 146.74 177.406 146.863 177.23C147.021 176.931 147.083 176.544 147.048 176.068C146.995 175.135 146.485 174.176 145.518 173.19C143.302 170.902 141.975 169.573 141.535 169.203Z" fill="#0D131A"/>
<path d="M101.21 47.8986C100.841 47.9866 100.542 48.1803 100.313 48.4795C100.085 48.7788 99.9791 49.122 99.9967 49.5093L100.313 58.0381C100.471 64.0408 100.454 67.9664 100.26 69.8147C100.014 72.0327 99.311 74.9549 98.1506 78.5812C96.9022 82.4539 95.5571 85.6929 94.1154 88.2982C93.3769 89.6185 91.7857 92.1709 89.3417 95.9556L83.0384 105.99C80.7175 109.88 79.0999 112.978 78.1856 115.284C75.9878 120.864 74.4318 125.459 73.5175 129.067C71.8471 135.581 71.346 141.328 72.0142 146.31C72.7526 151.732 75.0032 155.974 78.7658 159.037C82.4582 162.065 87.3549 163.72 93.456 164.001C100.77 164.336 107.417 163.236 113.395 160.701C121.254 157.391 127.496 151.776 132.12 143.854C136.375 136.549 137.527 128.346 135.575 119.245C134.151 112.608 131.021 105.409 126.186 97.6456C121.896 90.7275 119.294 81.2041 118.379 69.0754C118.098 65.097 118.546 59.9657 119.724 53.6813L121.597 45.3373C121.632 45.1085 121.491 44.8708 121.175 44.6244L120.357 44.0435C119.935 43.6386 119.434 43.5066 118.854 43.6474L101.21 47.8986Z" fill="#0D131A"/>
<path d="M128.955 145.887C122.766 151.063 116.199 154.311 109.254 155.631C102.291 156.951 96.2517 156.062 91.1352 152.964C90.1154 155.886 88.8495 157.981 87.3374 159.248C86.6341 159.864 85.7198 160.428 84.5945 160.938C87.1792 162.012 90.133 162.628 93.4561 162.787C99.9441 163.068 105.861 162.206 111.206 160.199C118.485 157.453 124.401 152.682 128.955 145.887Z" fill="#DDD583"/>
<path d="M133.149 116.076C131.566 111.57 129.553 107.97 127.109 105.277C123.716 101.545 119.724 99.846 115.135 100.18C109.632 100.603 104.744 104.845 100.471 112.908C96.6561 120.107 94.5022 127.703 94.0099 135.695C93.5527 143.089 92.5945 148.845 91.1351 152.964C96.2517 156.062 102.291 156.951 109.254 155.631C116.199 154.311 122.766 151.063 128.955 145.887L130.432 143.537C135.091 135.563 135.997 126.409 133.149 116.076Z" fill="#FFF697"/>
<path d="M92.7968 102.187C92.7968 100.128 92.155 98.2441 90.8715 96.5366C86.1945 103.789 83.0121 109.061 81.3242 112.353H81.4297C84.5769 112.353 87.2583 111.359 89.4737 109.369C91.6891 107.398 92.7968 105.004 92.7968 102.187Z" fill="#D18200"/>
<path d="M101.606 49.4829L101.632 50.724L101.737 60.9163C101.737 64.4193 101.676 67.0862 101.553 68.917L101.474 69.8147C101.21 72.3496 100.533 75.4566 99.4429 79.1357C98.2473 83.1845 96.9374 86.4939 95.5132 89.064L87.6011 101.659C83.5219 108.102 80.8845 112.837 79.6889 115.865C77.4735 121.498 75.8999 126.154 74.968 129.833C73.4208 135.977 72.9636 141.399 73.5966 146.099C74.0537 149.496 75.1439 152.418 76.8669 154.865C78.5021 157.206 80.6736 159.046 83.3813 160.384C84.7703 159.856 85.8868 159.231 86.7307 158.509C88.4187 157.066 89.7198 154.575 90.634 151.036C91.478 147.674 92.0934 142.86 92.4802 136.593C92.7088 132.755 93.3593 128.689 94.4319 124.394C95.5747 119.817 96.9901 115.883 98.678 112.591C100.524 108.982 102.669 105.972 105.113 103.56C108.243 100.48 111.496 98.8162 114.872 98.5698C120.762 98.1297 125.878 101.263 130.221 107.97C128.832 104.854 127.162 101.721 125.21 98.5698C120.744 91.4228 118.063 81.8378 117.166 69.8147C117.008 67.4559 117.166 64.2609 117.641 60.2297C118.151 55.9873 118.828 52.5019 119.672 49.7734L119.223 45.3373V45.2317L101.606 49.4829Z" fill="#F29600"/>
<path d="M101.606 49.4829L101.632 50.724L101.737 60.9163C101.737 64.4193 101.676 67.0862 101.553 68.917L101.474 69.8147L100.946 73.1946C104.146 74.0572 107.267 73.4234 110.309 71.2934C112.841 69.5155 115.188 66.787 117.351 63.1079C117.79 57.8093 118.564 53.3645 119.672 49.7734L119.223 45.3373V45.2317L101.606 49.4829Z" fill="#D18200"/>
<path d="M72.3835 123.628C69.6582 126.744 67.3988 130.106 65.6054 133.715C63.2142 138.485 62.0186 143.546 62.0186 148.898C62.0186 151.661 62.6603 154.645 63.9439 157.849C64.5768 159.468 65.2186 160.833 65.8692 161.942C66.0098 162.787 66.0801 163.64 66.0801 164.503C63.7417 166.298 62.2032 167.672 61.4647 168.622L60.2515 170.101L59.3548 171.157C58.546 171.632 58.0186 172.143 57.7724 172.688C57.5438 173.234 57.4471 173.886 57.4823 174.642L55.8207 177.679C55.2054 179.052 54.9592 180.364 55.0823 181.613C55.1526 182.282 55.3109 182.828 55.557 183.25C55.8735 183.955 56.2076 184.324 56.5592 184.359L57.1394 183.937L57.4823 183.488C58.3614 182.573 58.9768 182.027 59.3285 181.851L61.0164 181.217L63.0472 180.504L64.9988 180.61V181.825C65.034 182.775 65.1658 183.567 65.3944 184.201C65.6582 184.958 65.9922 185.609 66.3966 186.155C66.801 186.718 67.1263 186.965 67.3725 186.894C67.4955 186.877 67.7681 186.534 68.19 185.865C68.5241 185.336 68.8933 184.879 69.2977 184.492L71.4604 183.066L73.5967 181.877L74.7307 181.481L76.3659 181.508C76.6472 182.634 77.2187 183.937 78.0802 185.416C78.5373 186.296 78.8714 186.727 79.0824 186.71C79.2055 186.692 79.4253 186.472 79.7418 186.049L80.1637 185.442C80.744 184.492 81.2099 183.831 81.5615 183.462L83.144 182.062L84.9901 180.452L86.2033 180.029L87.0473 179.395C87.3462 179.131 87.5572 178.814 87.6803 178.445C87.7682 178.181 87.8297 177.811 87.8649 177.336C88.0055 174.343 86.9682 171.034 84.7528 167.407L84.911 165.348C87.3726 164.133 89.711 162.162 91.9264 159.433C93.7902 157.145 94.9682 154.205 95.4605 150.614L95.6715 145.887C95.566 143.018 94.5286 140.166 92.5594 137.332C91.399 135.642 90.0979 134.19 88.6561 132.975L77.5 119.166L77.922 116.552L76.656 119.113L72.3835 123.628Z" fill="#0D131A"/>
<path d="M69.0867 77.6834L68.9812 77.1025C68.8581 75.9407 68.401 75.0165 67.6098 74.33L67.4515 74.198C66.9592 73.7051 66.3262 73.3354 65.5526 73.089C64.4801 72.7369 63.5306 72.8073 62.7042 73.3002C61.6669 73.8987 60.8493 74.9109 60.2515 76.3368C59.6009 77.9035 59.6009 79.1797 60.2515 80.1655L60.9899 81.565C61.2888 82.1811 61.4559 82.5948 61.491 82.806C61.4383 83.0172 61.2097 83.3781 60.8053 83.8886L59.8559 84.9976L57.4559 84.5487C56.4712 84.4783 55.7591 84.7776 55.3196 85.4465C55.091 85.7986 54.8976 86.9164 54.7394 88.7999C54.5811 90.7011 54.6075 91.8629 54.8185 92.2854C54.9591 92.567 55.1965 92.8311 55.5306 93.0775L56.7701 93.8961L57.8515 94.3186C58.3262 94.477 58.6075 94.6178 58.6954 94.741C59.2756 95.3748 60.1284 96.6334 61.2537 98.517C61.535 98.9922 62.0273 99.3619 62.7306 99.626L64.3658 99.9956C65.702 105.382 66.8977 109.22 67.9526 111.508C68.779 113.321 69.746 114.589 70.8537 115.311C71.8383 115.944 73.0515 116.279 74.4933 116.314C75.7768 116.349 76.7878 116.164 77.5263 115.759C77.7549 115.636 78.8186 114.571 80.7175 112.564L84.067 109.105L85.8868 107.785L87.7857 106.544C88.5066 106.051 89.3681 105.576 90.3703 105.118L91.6626 104.59L92.6648 104.511L93.7989 104.722L94.4055 104.907L93.2451 104.088C94.3 103.948 94.8363 103.789 94.8539 103.613C94.8714 103.507 94.7396 103.437 94.4582 103.402H94.0099L101.869 91.2556C102.467 91.5372 102.81 91.5372 102.898 91.2556C102.951 91.0796 102.942 90.9299 102.871 90.8067L102.529 90.437C102.335 90.2786 101.553 89.8209 100.181 89.064C98.933 88.395 97.5 87.8934 95.8824 87.5589C94.1242 87.2068 92.7791 87.198 91.8472 87.5325C90.1593 88.1486 88.9725 89.02 88.2868 90.1466C87.6362 91.2556 87.3022 92.9103 87.2846 95.1107L85.9395 95.8501C85.3593 96.1845 84.9109 96.519 84.5945 96.8534L84.1461 97.3551L81.8516 99.9428C80.7615 101.157 79.9439 101.958 79.3988 102.346C78.6604 102.874 77.7812 103.155 76.7614 103.191L74.7043 103.032L74.2559 100.048C74.0977 98.4113 74.0801 97.3111 74.2032 96.7478L75.7329 95.454C76.5241 95.1723 77.0516 94.9171 77.3153 94.6882C77.8428 94.1601 78.0801 93.3064 78.0274 92.127L78.001 90.8595L78.4494 90.4634C79.6801 89.4424 80.5065 88.6151 80.9285 87.9814C81.5791 87.0308 81.7637 85.9306 81.4824 84.6808C81.2186 83.5365 80.7615 82.8236 80.1109 82.542C79.601 82.3307 79.3549 82.2427 79.3724 82.2779L76.7878 80.9841C76.3483 80.8256 75.9263 80.8608 75.5219 81.0897L74.7043 81.829C74.212 82.3219 73.9219 82.5772 73.834 82.5948L72.0142 82.8324L70.3526 80.1391C69.6142 78.8541 69.1922 78.0355 69.0867 77.6834Z" fill="#0D131A"/>
<path d="M67.6362 77.9739L67.4252 76.4952C67.3197 75.8967 67.1527 75.5006 66.9241 75.307L65.5526 74.2772C64.7263 73.9603 63.7504 74.1099 62.6252 74.7261L61.6757 76.4952C61.1306 77.7978 61.0603 78.7572 61.4647 79.3733C61.7285 79.7606 62.0098 80.4031 62.3087 81.3009C62.6252 82.2163 62.757 82.8148 62.7043 83.0964C62.5988 83.7478 62.1328 84.4519 61.3065 85.2088L60.0933 86.133L58.6427 85.7105C57.6054 85.5345 56.9021 85.7193 56.5328 86.265C56.146 86.8283 55.935 87.8229 55.8998 89.2488C55.8647 90.4986 55.935 91.2908 56.1108 91.6252L57.6141 92.7078C58.6163 93.3064 59.2581 93.7552 59.5394 94.0545L61.2274 96.0613C61.9658 96.9766 62.3966 97.5576 62.5197 97.804C62.801 98.2793 63.3988 98.6402 64.3131 98.8866L65.6054 99.0978L66.001 101.58C66.4054 103.64 66.9768 105.629 67.7153 107.547C68.5768 109.765 69.2626 111.262 69.7724 112.036C70.212 112.688 70.8626 113.295 71.7241 113.858C72.4802 114.351 73.4296 114.642 74.5725 114.73C75.6274 114.818 76.4011 114.721 76.8934 114.439C77.1747 114.298 77.7989 113.638 78.7659 112.459C79.7857 111.209 80.5681 110.382 81.1132 109.977L83.8033 107.785C85.0868 106.711 86.133 105.902 86.9418 105.356C88.0143 104.616 90.0187 104.009 92.955 103.534L94.1946 103.375H94.6693L102.133 91.414L98.4671 89.7769C95.7946 88.7735 93.9044 88.4654 92.7967 88.8527C91.4956 89.328 90.5462 89.8473 89.9484 90.4106C89.4033 90.9035 88.9989 91.5812 88.7352 92.4438C88.4187 93.5176 88.3132 94.6794 88.4187 95.9292L87.311 96.563C86.4846 97.0735 85.8517 97.5664 85.4121 98.0416L83.0912 100.55C81.9308 101.73 80.9989 102.574 80.2956 103.085C78.7659 104.176 77.034 104.643 75.1 104.484C75.2406 104.977 75.6186 105.417 76.234 105.805L77.5527 106.729L78.634 107.363C78.9154 107.591 79.0648 107.917 79.0824 108.34C79.1 108.815 78.9066 109.545 78.5022 110.531C78.0978 111.499 77.8252 111.957 77.6846 111.904L77.9747 110.98C78.2912 110.17 78.423 109.343 78.3703 108.498C78.3703 108.322 78.256 108.146 78.0274 107.97C77.8868 107.882 77.5439 107.679 76.9989 107.363L75.8384 106.702C75.1879 106.28 74.5989 105.646 74.0714 104.801L73.8604 104.326L73.4911 102.953L72.8318 99.9164C72.6736 98.9658 72.6472 98.0504 72.7527 97.1703L72.99 96.1405C74.1329 95.0315 74.889 94.3978 75.2582 94.2393L76.1285 93.7904C76.4274 93.4736 76.5769 92.9191 76.5769 92.1269L76.5505 90.7539L76.656 90.173L78.1329 89.064C79.1351 88.3774 79.7945 87.8141 80.111 87.374C80.8846 86.3002 81.0516 85.3321 80.6121 84.4695L79.7417 83.4925L76.3131 82.3571L75.5747 83.0172C75.0824 83.5453 74.6604 83.871 74.3087 83.9942L72.5417 84.2847L71.223 84.1526C70.9944 84.0294 70.3615 83.0788 69.3241 81.3009C68.2691 79.523 67.7065 78.4139 67.6362 77.9739Z" fill="#F29600"/>
<path d="M73.0164 87.1364C73.0867 87.8405 73.4647 88.2982 74.1505 88.5095C74.7834 88.7031 75.2933 88.6327 75.6801 88.2982C76.4186 87.6645 77.0604 87.2332 77.6054 87.0044L78.4494 86.8724L79.0824 86.7931C79.6977 86.6875 80.1285 86.1858 80.3747 85.2881C80.5329 84.6719 80.5505 84.0558 80.4274 83.4397C80.2516 82.7004 79.8824 82.0755 79.3197 81.565C78.6516 80.9664 77.8428 80.7112 76.8933 80.7992C76.0318 80.8872 75.4516 81.1425 75.1527 81.565L74.9944 81.7234C73.8867 82.8324 73.2625 83.8182 73.1219 84.6807C72.9636 85.6665 72.9285 86.4851 73.0164 87.1364Z" fill="#0D131A"/>
<path d="M73.2274 86.3706L73.3592 84.7335C73.4999 83.959 74.0977 83.0172 75.1526 81.9082L75.3373 81.7234C75.6186 81.3713 76.1461 81.1513 76.9197 81.0632C77.7637 80.9576 78.5109 81.1865 79.1615 81.7498C79.8999 82.4187 80.2692 83.2549 80.2692 84.2583L80.1373 85.2088C79.9087 86.0186 79.5483 86.4675 79.056 86.5555L78.423 86.6347L77.4999 86.7667C76.9549 87.0132 76.3746 87.4004 75.7593 87.9285C75.39 88.2102 74.9153 88.307 74.3351 88.219C73.7021 88.1134 73.3504 87.7877 73.2801 87.242L73.2274 86.3706ZM72.8845 84.6543C72.7087 85.7105 72.7702 86.6699 73.0691 87.5325C73.4032 88.4126 73.7197 88.9319 74.0186 89.0904C74.3175 89.2488 74.7219 89.0992 75.2318 88.6415C75.7417 88.1838 76.568 87.7085 77.7109 87.2156L79.1351 87.0308C79.8384 86.9252 80.3307 86.3618 80.612 85.3409C80.7878 84.6895 80.8054 84.0382 80.6648 83.3869C80.4889 82.6123 80.0933 81.9522 79.478 81.4065C78.7747 80.7552 77.9043 80.4735 76.8669 80.5616L75.7065 80.8784L74.968 81.4065L74.8098 81.5649C73.6845 82.6916 73.0428 83.7213 72.8845 84.6543Z" fill="#0D131A"/>
<path d="M76.867 81.4857C76.3043 81.5737 75.9351 81.7234 75.7593 81.9346L74.8626 82.938C74.3351 83.5893 74.0274 84.1614 73.9395 84.6543C73.7461 85.8513 73.7549 86.8195 73.9659 87.5589L74.3615 88.3246L74.5461 88.1398C74.8274 87.3476 75.5483 86.5291 76.7087 85.6841L77.4472 85.4993C77.8868 85.4289 78.256 85.2968 78.5549 85.1032L79.689 83.915C79.6186 83.1404 79.3109 82.5243 78.7659 82.0666C78.2384 81.5913 77.6054 81.3977 76.867 81.4857Z" fill="white"/>
<path d="M78.8977 85.8954C79.1087 85.8601 79.3022 85.6489 79.478 85.2616C79.6538 84.8392 79.7241 84.3903 79.689 83.915L78.5549 85.1032C78.256 85.2968 77.8868 85.4289 77.4472 85.4993L76.7087 85.6841C75.5483 86.5291 74.8274 87.3476 74.5461 88.1398C75.5834 87.154 76.5065 86.4851 77.3153 86.133L78.0802 85.9746L78.8977 85.8954Z" fill="#DBDCDC"/>
<path d="M63.4427 73.3266C62.546 73.7315 61.9658 74.418 61.7021 75.3862C61.5262 76.0023 61.4999 76.6712 61.6229 77.393C61.7109 78.0267 61.8603 78.4756 62.0713 78.7396C64.4801 81.0633 66.0625 82.3131 66.8186 82.4891C67.1702 82.5419 67.4252 82.4715 67.5834 82.2779C67.9702 81.8026 68.2428 80.7992 68.401 79.2677C68.5768 77.6482 68.4801 76.46 68.1109 75.7031C67.0384 73.221 65.4823 72.4288 63.4427 73.3266Z" fill="#0D131A"/>
<path d="M63.6273 73.7227C64.6647 73.265 65.5438 73.309 66.2647 73.8547C66.7922 74.242 67.2757 74.9197 67.7153 75.8879C68.0493 76.6096 68.1636 77.7627 68.0581 79.3469C67.9702 80.8608 67.7768 81.8026 67.4779 82.1723L67.0823 82.2251C66.6779 82.1371 65.8251 81.5386 64.524 80.4296L62.4141 78.4756L62.124 77.7362L61.9921 76.5216L62.124 75.4918C62.335 74.6645 62.8361 74.0748 63.6273 73.7227ZM68.3482 75.5182C67.9087 74.2156 67.2317 73.3354 66.3174 72.8777C65.4207 72.42 64.4097 72.4377 63.2845 72.9305C62.1943 73.4058 61.5174 74.3124 61.2537 75.6503C61.0075 76.9177 61.2273 77.9827 61.913 78.8453C62.5812 79.7958 63.5394 80.7464 64.7878 81.697C66.1065 82.718 67.012 83.1317 67.5043 82.938C68.0493 82.7268 68.4361 81.7938 68.6647 80.1391C68.9109 78.3964 68.8054 76.8561 68.3482 75.5182Z" fill="#0D131A"/>
<path d="M67.4516 75.7559C67.0296 74.8229 66.5636 74.1804 66.0537 73.8283L63.7592 73.7491C63.2669 73.9427 62.8801 74.2948 62.5988 74.8053C62.6691 75.8087 62.9328 76.6712 63.39 77.393C64.5504 79.1357 65.834 80.7024 67.2406 82.0931C67.5219 82.1283 67.7153 81.2745 67.8208 79.5318C67.9263 77.7538 67.8032 76.4952 67.4516 75.7559Z" fill="white"/>
<path d="M64.7614 80.1655C66.0449 81.3625 66.8625 82.005 67.2142 82.093H67.2405C65.8339 80.7024 64.5504 79.1357 63.39 77.393C62.9328 76.6712 62.6691 75.8087 62.5988 74.8053C62.3174 75.351 62.2207 76.0199 62.3087 76.812C62.379 77.4106 62.4933 77.833 62.6515 78.0795L64.7614 80.1655Z" fill="#DBDCDC"/>
<path d="M62.8361 89.0375L61.5701 86.6347C61.0954 86.089 60.4976 85.8073 59.7767 85.7897C59.0558 85.7897 58.4053 86.089 57.8251 86.6875C57.1921 87.3212 56.9547 88.1398 57.113 89.1432C57.2712 89.9353 57.8163 90.5602 58.7481 91.0179L60.7789 91.7309C61.9921 92.1005 62.8185 92.259 63.2581 92.2061L63.8119 92.1533C63.9526 91.7485 63.6273 90.7099 62.8361 89.0375Z" fill="#0D131A"/>
<path d="M62.7834 89.5392C63.4691 91.0531 63.7856 91.8805 63.7328 92.0213L62.9152 91.9685L61.0691 91.6516C60.4537 91.4932 59.7064 91.194 58.8273 90.7539C57.9657 90.3138 57.4734 89.7593 57.3504 89.0904L57.324 88.5623C57.324 87.8757 57.5438 87.3124 57.9833 86.8723C58.546 86.2914 59.135 86.0186 59.7504 86.0538C60.4185 86.0538 60.9548 86.2914 61.3592 86.7667L62.7834 89.5392ZM64.2339 92.4966C64.4273 92.3206 64.2163 91.4492 63.6009 89.8825C62.968 88.263 62.3526 87.1188 61.7548 86.4499C61.2097 85.869 60.5504 85.5697 59.7767 85.5521C58.9855 85.5521 58.2734 85.8778 57.6405 86.5291C56.9372 87.2332 56.6822 88.1134 56.8756 89.1696C56.9635 89.6801 57.1745 90.1554 57.5086 90.5954L58.5372 91.4668C58.9943 91.7133 59.9965 91.9861 61.5438 92.2854L64.2339 92.4966Z" fill="#0D131A"/>
<path d="M57.6933 87.8757C58.168 88.5975 58.8449 89.2928 59.724 89.9617C60.8141 90.7539 62.0713 91.3876 63.4955 91.8629C63.6537 91.8453 63.3109 91.0355 62.4669 89.4336C61.6581 87.9022 61.1394 87.0044 60.9108 86.7403C60.6119 86.4235 60.2603 86.2386 59.8559 86.1858C59.2757 86.0978 58.7306 86.3178 58.2207 86.8459C57.9218 87.1452 57.746 87.4885 57.6933 87.8757Z" fill="white"/>
<path d="M58.7218 90.4634L61.0427 91.282C62.3613 91.7045 63.1789 91.8981 63.4954 91.8629C62.0712 91.3876 60.8141 90.7539 59.724 89.9617C58.8448 89.2928 58.1679 88.5975 57.6932 87.8757C57.6229 88.4038 57.7284 88.9583 58.0097 89.5393C58.2382 90.0145 58.4756 90.3226 58.7218 90.4634Z" fill="#DBDCDC"/>
<path d="M67.557 89.6184C68.0493 90.0233 68.5241 90.5074 68.9812 91.0707C69.9131 92.2149 70.3175 93.2007 70.1944 94.0281C70.1241 94.5914 69.9307 95.1459 69.6142 95.6916C70.546 95.4627 71.3197 94.9258 71.9351 94.0809C72.5505 93.2183 72.8582 92.2413 72.8582 91.1499C72.8582 89.8649 72.4538 88.7647 71.645 87.8493C70.8537 86.9339 69.8867 86.4763 68.7438 86.4763C68.0405 86.4763 67.3812 86.6699 66.7658 87.0572C66.168 87.4268 65.6757 87.9285 65.2889 88.5622C66.3614 88.9143 67.1175 89.2664 67.557 89.6184Z" fill="#D18200"/>
<path d="M67.557 89.6185C67.2581 89.3896 66.7394 89.1256 66.001 88.8263C65.2801 88.5271 64.9021 88.4127 64.8669 88.4831L65.79 89.0112L67.1878 89.8033C67.6625 90.173 68.1812 90.7979 68.7438 91.6781C69.3944 92.7343 69.6757 93.588 69.5878 94.2394C69.4296 95.3836 68.7702 96.4662 67.6098 97.4872L65.9746 98.7282C66.0625 98.957 66.7131 98.5786 67.9263 97.5928C69.2449 96.519 70.001 95.3308 70.1944 94.0281C70.3175 93.2008 69.9131 92.215 68.9812 91.0708C68.5241 90.5074 68.0493 90.0234 67.557 89.6185Z" fill="#0D131A"/>
<path d="M79.267 116.921L78.8187 118.004C78.4494 118.831 78.0714 119.5 77.6846 120.011L74.2824 123.443C72.0846 125.925 70.0362 129.076 68.1373 132.896C66.0274 137.121 64.7087 141.02 64.1812 144.594C63.7944 147.322 63.856 150.095 64.3658 152.911C64.6999 154.848 65.2274 156.819 65.9483 158.826L67.0032 161.73C67.1263 162.347 67.1966 163.024 67.2142 163.764C67.2494 164.521 67.2054 164.952 67.0824 165.057L65.3417 166.457C64.0933 167.513 63.2406 168.349 62.7834 168.965L60.2515 172.16L59.6449 172.477C59.2054 172.724 58.9504 172.944 58.8801 173.137C58.634 173.736 58.6691 174.51 58.9856 175.461C59.3724 176.57 60.0406 177.38 60.99 177.89L63.179 179.052C63.2845 177.996 63.4779 177.547 63.7593 177.705C64.6911 178.269 65.5878 178.392 66.4494 178.075V180.029L70.1681 180.399L72.0406 180.478C72.7791 178.788 73.3857 178.146 73.8604 178.55C74.3176 178.955 74.9154 179.078 75.6538 178.92C76.3044 178.779 76.8055 178.498 77.1571 178.075L77.2363 180.452C79.7506 180.364 81.7901 180.099 83.355 179.659L84.0934 177.573C84.6209 177.292 85.078 176.843 85.4649 176.227C85.8517 175.593 86.1066 174.898 86.2297 174.141C85.8605 172.099 85.0165 170.048 83.6978 167.988C83.5923 167.795 83.5572 167.02 83.5923 165.665L82.5374 165.876L80.1374 165.982L78.8978 165.797L80.111 165.586L82.3264 165.216L83.6187 164.846V164.82C84.0231 164.732 84.6033 164.433 85.3594 163.922C86.889 162.883 88.533 161.282 90.2913 159.116C92.1023 156.881 93.2715 154.319 93.799 151.432C94.0803 149.901 94.177 147.885 94.0891 145.386C93.9836 142.446 93.0605 139.427 91.3198 136.329L88.7352 132.553L79.267 116.921Z" fill="#F29600"/>
<path d="M63.7592 177.705C63.4779 177.547 63.2845 177.996 63.179 179.052C64.0405 179.475 65.1307 179.8 66.4493 180.029V178.075C65.5878 178.392 64.6911 178.269 63.7592 177.705Z" fill="#D18200"/>
<path d="M73.8604 178.55C73.3856 178.146 72.779 178.788 72.0406 180.478C73.834 180.531 75.5659 180.522 77.2362 180.452L77.1571 178.075C76.8054 178.498 76.3043 178.779 75.6538 178.92C74.9153 179.078 74.3175 178.955 73.8604 178.55Z" fill="#D18200"/>
<path d="M86.2297 174.141C86.1066 174.898 85.8516 175.593 85.4648 176.227C85.078 176.843 84.6209 177.292 84.0934 177.573L83.3549 179.659C85.3769 179.131 86.4143 178.348 86.467 177.309C86.5198 176.306 86.4406 175.25 86.2297 174.141Z" fill="#D18200"/>
<path d="M63.1526 177.336L63.2581 177.389C62.8361 176.332 62.2999 175.514 61.6493 174.933C60.946 174.317 60.4361 173.93 60.1196 173.771C59.768 173.577 59.4955 173.604 59.3021 173.85L58.1416 175.672L56.7965 178.154C56.2515 179.387 56.0317 180.54 56.1372 181.613C56.1899 182.159 56.2954 182.573 56.4537 182.854C56.5592 182.115 57.0867 181.323 58.0361 180.478C58.8097 179.791 59.4603 179.351 59.9878 179.158C60.6383 178.946 61.2449 178.709 61.8076 178.445C62.6515 178.022 63.0999 177.653 63.1526 177.336Z" fill="white"/>
<path d="M63.5218 178.973C63.7504 178.885 63.6625 178.357 63.2581 177.389L63.1526 177.336C63.0998 177.653 62.6515 178.022 61.8075 178.445C61.2449 178.709 60.6383 178.946 59.9877 179.158C59.4603 179.351 58.8097 179.791 58.0361 180.478C57.0866 181.323 56.5591 182.115 56.4536 182.854C57.4734 181.798 58.2207 181.147 58.6954 180.9L61.2273 179.871L63.5218 178.973Z" fill="#DBDCDC"/>
<path d="M69.1658 174.405L67.4515 176.781C66.4317 178.366 65.9218 179.624 65.9218 180.557C65.9218 182.229 66.1065 183.559 66.4757 184.544L67.0295 185.495L67.2669 185.152C67.2142 184.113 67.768 183.066 68.9285 182.009C69.7373 181.252 70.5285 180.716 71.3021 180.399C72.5153 179.871 73.201 179.202 73.3593 178.392C72.9373 177.195 72.4625 176.306 71.9351 175.725C71.3724 175.127 70.7834 174.704 70.168 174.458L69.1658 174.405Z" fill="white"/>
<path d="M71.3021 180.399C70.5285 180.716 69.7373 181.252 68.9285 182.009C67.768 183.066 67.2142 184.113 67.2669 185.152L68.401 183.805C68.7526 183.471 69.6757 182.846 71.1702 181.93C72.5944 181.05 73.4296 180.575 73.6757 180.504C73.7812 180.487 73.7988 180.267 73.7285 179.844C73.6757 179.422 73.5527 178.938 73.3593 178.392C73.201 179.202 72.5153 179.871 71.3021 180.399Z" fill="#DBDCDC"/>
<path d="M82.7483 175.408C82.3615 174.933 81.9571 174.554 81.5351 174.273C81.0428 173.974 80.7087 173.93 80.5329 174.141L78.845 176.174C77.8955 177.371 77.368 178.154 77.2626 178.524C76.9812 179.475 77.1922 180.848 77.8955 182.643C78.2472 183.541 78.634 184.342 79.056 185.046L79.2142 184.782V184.65C79.267 183.77 79.5834 182.925 80.1637 182.115L81.6406 180.399L82.8802 179.131L83.9351 177.943C83.5131 176.693 83.1175 175.848 82.7483 175.408Z" fill="white"/>
<path d="M81.6406 180.399L80.1637 182.115C79.5834 182.925 79.267 183.77 79.2142 184.65V184.782C79.8823 183.779 80.3659 183.118 80.6648 182.802L84.1461 179.422C84.2868 179.316 84.2164 178.823 83.9351 177.943L82.8802 179.131L81.6406 180.399Z" fill="#DBDCDC"/>
<path d="M62.9416 177.045C63.3284 177.873 63.4955 178.454 63.4427 178.788L63.3372 178.946L62.7043 179.184L58.7482 180.768C58.3086 181.015 57.5965 181.64 56.6119 182.643C56.4537 182.397 56.3482 181.983 56.2954 181.402C56.1899 180.399 56.4009 179.325 56.9284 178.181L58.1943 175.804L59.3284 174.062C59.4163 173.938 59.5218 173.877 59.6449 173.877C59.9438 173.842 60.5856 174.246 61.5702 175.091C62.0625 175.531 62.5196 176.183 62.9416 177.045ZM63.0471 180.108L63.7065 179.844C64.0757 179.721 64.3043 179.431 64.3922 178.973C64.4801 178.427 64.2867 177.653 63.812 176.649C63.3372 175.646 62.801 174.88 62.2032 174.352L60.779 173.243C60.3218 172.979 59.9086 172.865 59.5394 172.9C59.1526 172.953 58.8185 173.146 58.5372 173.481L57.3768 175.303L56.0581 177.785C55.4427 179.122 55.2053 180.399 55.346 181.613C55.4163 182.229 55.557 182.731 55.768 183.118L56.0844 183.699L56.4537 183.937C56.6119 183.972 56.7438 183.919 56.8493 183.779L57.2976 183.33C58.2823 182.344 58.924 181.781 59.2229 181.64C59.6449 181.393 60.9196 180.883 63.0471 180.108Z" fill="#0D131A"/>
<path d="M73.5702 180.372L73.4647 180.504C73.201 180.592 72.401 181.05 71.0647 181.877C69.6581 182.722 68.7878 183.303 68.4537 183.62L67.1614 185.231C66.968 185.072 66.7922 184.764 66.6339 184.307C66.2823 183.374 66.1065 182.115 66.1065 180.531C66.1065 179.228 67.0999 177.327 69.0867 174.827L69.1922 174.669L69.4559 174.563C69.7197 174.546 70.0449 174.642 70.4318 174.854C70.9241 175.1 71.39 175.461 71.8296 175.936C72.3043 176.447 72.7351 177.239 73.1219 178.313C73.5087 179.334 73.6582 180.02 73.5702 180.372ZM73.7812 181.429C74.1329 181.323 74.3702 181.059 74.4933 180.636C74.6516 180.091 74.5109 179.211 74.0713 177.996C73.6142 176.799 73.1043 175.892 72.5417 175.276C72.0494 174.73 71.5131 174.308 70.9329 174.009C70.3702 173.71 69.8603 173.569 69.4032 173.586C68.9812 173.621 68.6471 173.789 68.401 174.088L68.3219 174.22C66.1944 176.896 65.1306 178.999 65.1306 180.531C65.1306 182.256 65.3328 183.647 65.7372 184.703C65.9658 185.301 66.2295 185.733 66.5284 185.997L66.9504 186.34L67.346 186.472L67.6889 186.234L67.979 185.759C68.3307 185.196 68.7087 184.72 69.1131 184.333C69.3944 184.069 70.1944 183.532 71.5131 182.722C72.7966 181.93 73.5527 181.499 73.7812 181.429Z" fill="#0D131A"/>
<path d="M80.2956 174.695L80.533 174.405C80.6209 174.317 80.7176 174.273 80.8231 174.273C81.0692 174.273 81.3681 174.414 81.7198 174.695C82.0714 174.959 82.3791 175.267 82.6429 175.619C82.9242 175.954 83.2494 176.605 83.6187 177.573C84.0055 178.594 84.1286 179.219 83.9879 179.448L82.4319 180.9L80.6648 182.643C80.2956 183.048 79.7857 183.761 79.1351 184.782C78.5725 183.831 78.1154 182.837 77.7637 181.798C77.3066 180.408 77.1923 179.334 77.4208 178.577C77.5615 178.084 78.5198 176.79 80.2956 174.695ZM83.4077 175.012C83.1791 174.695 82.8626 174.37 82.4582 174.035C81.8604 173.542 81.3154 173.296 80.8231 173.296C80.4187 173.296 80.0758 173.454 79.7945 173.771L79.5571 174.062C77.6934 176.244 76.6736 177.653 76.4978 178.286C76.1813 179.343 76.3483 180.768 76.9989 182.564C77.3681 183.532 77.7989 184.439 78.2912 185.284L78.6868 185.97L79.1088 186.234L79.5044 185.997L79.9527 185.31L81.3769 183.303L84.6209 180.161C85.1308 179.721 85.1044 178.762 84.5418 177.283C84.1198 176.209 83.7418 175.452 83.4077 175.012Z" fill="#0D131A"/>
<path d="M80.5066 167.143L81.9835 166.827C82.4934 166.651 82.7307 166.519 82.6956 166.431L82.0362 166.51L80.6912 166.695L78.5285 166.642C77.5791 166.589 77.1043 166.589 77.1043 166.642L78.4494 166.959L80.5066 167.143Z" fill="#0D131A"/>
<path d="M104.823 1.02979C103.557 0.941773 102.502 1.83954 101.658 3.7231C101.43 4.21599 101.157 5.29859 100.841 6.97091L100.181 10.6676C100.058 11.3893 99.4517 14.065 98.3616 18.6947C97.9748 20.3846 96.7352 22.8843 94.6429 26.1937L93.1396 28.8342L92.6912 30.2865C92.6209 30.8498 92.911 32.1436 93.5616 34.168C93.2275 35.277 93.1044 36.8613 93.1924 38.9209L91.4781 43.8058L90.555 46.1823L89.4737 48.3211C89.333 48.5499 89.078 48.6732 88.7088 48.6908C88.3923 48.726 88.0846 49.0252 87.7857 49.5885C87.2055 50.6975 87.7945 52.7659 89.5528 55.7937L92.3484 60.0185C92.1198 61.5148 92.8231 62.5006 94.4583 62.9758L98.177 63.4247C98.5814 63.4775 99.1704 63.7152 99.944 64.1377C100.647 64.5073 101.456 64.6922 102.37 64.6922C103.461 64.6922 104.726 64.2873 106.168 63.4775C107.417 62.8086 108.181 62.2453 108.463 61.7876L110.124 59.728L112.419 56.9555L115.505 53.5757L118.327 50.6183C118.696 50.1958 119.144 49.9054 119.672 49.747L120.331 49.6413C121.527 48.5851 122.546 47.2121 123.39 45.5222C124.058 44.1667 124.393 43.2073 124.393 42.644C124.393 42.2391 124.296 41.4206 124.102 40.1884C123.891 38.8681 123.672 37.8031 123.443 36.9934C122.916 35.1274 122.652 33.5783 122.652 32.3461C122.652 31.2723 123.118 29.4063 124.05 26.7482C124.454 25.5512 125.746 23.1572 127.927 19.5661L130.221 16.7407L132.911 13.5986C133.474 12.912 133.729 12.0495 133.676 11.0109C133.623 10.1131 133.412 9.53219 133.043 9.26814C132.674 9.00409 132.05 8.86326 131.171 8.84566C130.344 8.84566 129.694 8.94248 129.219 9.13612C128.815 9.29455 128.015 9.95467 126.819 11.1165L123.311 14.6284C120.41 17.5329 117.913 19.7069 115.821 21.1504C114.942 21.7665 113.702 21.8985 112.102 21.5465C110.819 21.2824 109.544 20.7807 108.278 20.0414C107.381 19.5133 106.81 18.5099 106.564 17.0312C106.458 16.3623 106.406 15.0948 106.406 13.2289L106.696 8.26475C106.872 5.8883 106.951 4.49764 106.933 4.09277C106.898 3.31822 106.74 2.6757 106.458 2.1652C106.107 1.46107 105.562 1.0826 104.823 1.02979Z" fill="#F29600"/>
<path d="M98.9946 53.4701L97.755 53.9454L96.7 54.0774L95.777 54.051L95.2759 53.9189L94.9857 53.9718C94.933 54.1126 95.0737 54.2446 95.4077 54.3678L96.6737 54.5791C97.4825 54.5791 98.3088 54.3678 99.1528 53.9454C99.3638 53.8397 99.7242 53.7605 100.234 53.7077L101.236 53.6813C101.447 53.7165 102.036 54.2182 103.003 55.1864C103.355 55.5385 103.619 55.5913 103.795 55.3448C103.918 55.1864 103.751 54.9223 103.293 54.5527L102.186 53.7341C101.57 53.3292 101.043 53.1268 100.603 53.1268C100.146 53.1268 99.6099 53.2412 98.9946 53.4701Z" fill="#0D131A"/>
<path d="M98.9418 57.6949L100.102 57.378L101.025 57.6421C101.412 57.6949 101.676 57.6244 101.816 57.4308C101.887 57.3252 101.755 57.1492 101.421 56.9027C101.087 56.6739 100.814 56.5506 100.603 56.533C100.41 56.5154 100.076 56.6211 99.6011 56.8499L98.7308 57.3516C98.6077 57.4572 98.5725 57.554 98.6253 57.6421L98.9418 57.6949Z" fill="#0D131A"/>
<path d="M89.5527 52.942C89.4648 53.0476 89.5176 53.2236 89.711 53.4701L90.1857 53.9982L91.0824 55.3712C91.2231 55.6177 91.3813 55.7233 91.5572 55.6881C91.7506 55.6353 91.7945 55.512 91.689 55.3184C91.5659 55.072 91.2495 54.5967 90.7396 53.8925C90.6165 53.6813 90.3967 53.4613 90.0802 53.2324C89.7637 52.986 89.5879 52.8891 89.5527 52.942Z" fill="#0D131A"/>
<path d="M103.557 36.9669L103.636 36.6765C103.636 36.5533 103.592 36.474 103.504 36.4388L103.056 36.6501L102.713 37.6007L102.37 38.0759L102.186 38.4984L102.397 39.0001C102.555 39.1409 102.687 39.1938 102.792 39.1586C102.915 39.1057 102.977 38.7801 102.977 38.1816L103.214 37.5743L103.557 36.9669Z" fill="#0D131A"/>
<path d="M102.792 39.449C102.634 39.5194 102.687 40.0651 102.951 41.0861L104.164 44.5452L104.85 45.4694C105.236 45.8566 105.483 46.0151 105.588 45.9447C105.764 45.8214 105.667 45.4782 105.298 44.9149L104.955 44.466L104.612 43.9379L103.953 42.3536L103.32 40.6901C103.056 39.7923 102.88 39.3786 102.792 39.449Z" fill="#0D131A"/>
<path d="M96.6473 36.8877L96.5154 37.3102L96.4891 38.0495L96.6473 39.317C96.6473 40.1619 96.7879 40.558 97.0693 40.5052C97.2451 40.47 97.333 40.338 97.333 40.1091L97.2803 39.5282L96.9902 38.34C96.8671 37.3894 96.7528 36.9053 96.6473 36.8877Z" fill="#0D131A"/>
<path d="M108.7 56.9555L108.621 58.3814C108.639 58.6806 108.507 58.8831 108.225 58.9887C107.944 59.0943 107.68 58.9799 107.434 58.6454L107.118 59.1207C107.522 59.6312 107.962 59.8865 108.436 59.8865C108.753 59.8865 108.99 59.508 109.149 58.7511C109.307 58.0117 109.36 57.1051 109.307 56.0313L108.7 56.9555Z" fill="#0D131A"/>
<path d="M108.331 59.0943C108.647 58.9535 108.77 58.2405 108.7 56.9555L107.434 58.6454L107.962 59.0679L108.331 59.0943Z" fill="white"/>
<path d="M93.5879 35.6731L93.4824 36.3596C93.3769 37.187 93.3681 38.0671 93.456 39.0001C93.4736 39.3698 93.6582 39.8715 94.0099 40.5052C94.4494 41.2797 94.9681 41.8078 95.5659 42.0895C95.5308 41.0333 95.3549 40.0123 95.0384 39.0265C94.6692 37.8999 94.1857 36.7821 93.5879 35.6731Z" fill="white"/>
<path d="M52.7614 38.1816C52.6383 38.1288 52.4537 38.208 52.2075 38.4192L51.7328 38.9209C49.8515 41.4206 48.058 45.5486 46.3525 51.3049C44.5767 57.2548 43.3459 63.4599 42.6602 69.9203C42.5899 70.4837 42.5987 70.9854 42.6866 71.4254C42.7569 71.8303 42.8712 72.0415 43.0294 72.0592C43.3459 72.0944 43.5657 71.4078 43.6888 69.9996C44.269 64.1553 45.4295 58.2582 47.1701 52.3082C48.7877 46.7632 50.5284 42.424 52.3921 39.2906C52.7965 38.6217 52.9196 38.252 52.7614 38.1816Z" fill="#0D131A"/>
<path d="M45.2185 42.9345C45.0954 42.8817 44.8317 43.1281 44.4273 43.6738L43.7679 44.6772C39.6536 56.0489 38.1064 66.8838 39.1261 77.1817L39.2316 78.502C39.3195 79.2413 39.425 79.611 39.5481 79.611C39.6536 79.611 39.7679 79.2853 39.891 78.634L40.0492 77.4194C39.6272 63.9704 41.2273 53.0828 44.8492 44.7564C45.3416 43.6474 45.4646 43.0401 45.2185 42.9345Z" fill="#0D131A"/>
<path d="M155.566 44.862L155.223 44.3339C155.065 44.1051 154.933 44.0083 154.828 44.0435C154.705 44.0787 154.643 44.2547 154.643 44.5716L154.749 45.2581C155.768 48.0746 156.542 51.9298 157.07 56.8235C157.65 62.0517 157.764 66.8838 157.412 71.3198V72.2968C157.448 72.7897 157.527 73.0361 157.65 73.0361C157.773 73.0361 157.896 72.7897 158.019 72.2968L158.177 71.3462C158.722 66.7694 158.705 61.6644 158.124 56.0313C157.562 50.4687 156.709 46.7456 155.566 44.862Z" fill="#0D131A"/>
<path d="M159.206 51.0144C159.048 50.4863 158.881 50.2486 158.705 50.3015C158.582 50.3191 158.503 50.4599 158.467 50.7239V51.3048C159.681 56.0401 160.595 60.8898 161.21 65.854C161.861 71.135 162.107 76.0991 161.949 80.7464C161.949 81.7674 162.037 82.2867 162.212 82.3043C162.336 82.3043 162.423 82.0842 162.476 81.6442L162.529 80.7464C163.144 76.1871 163.1 71.1878 162.397 65.7484C161.799 60.9955 160.736 56.0841 159.206 51.0144Z" fill="#0D131A"/>
<path d="M115.241 36.6237C115.012 36.5181 114.757 36.5533 114.476 36.7293L109.069 40.7429L108.7 41.0597C108.384 41.2534 108.155 41.5438 108.014 41.9311L107.645 42.6968L107.091 43.9907L107.197 44.3603L108.357 44.4131L111.654 43.7794L111.944 43.7002L114.74 42.9609C115.461 42.6968 115.865 42.3888 115.953 42.0367C116.041 41.6318 116.05 40.8837 115.979 39.7923L115.715 37.363C115.645 36.9757 115.487 36.7293 115.241 36.6237Z" fill="white"/>
<path d="M115.241 36.6237C115.012 36.5181 114.757 36.5533 114.476 36.7293L109.069 40.7429L108.7 41.0597C108.384 41.2534 108.155 41.5438 108.014 41.9311L107.645 42.6968L107.091 43.9907L107.197 44.3603L108.357 44.4131L111.654 43.7794L111.944 43.7002L114.74 42.9609C115.461 42.6968 115.865 42.3888 115.953 42.0367C116.041 41.6318 116.05 40.8837 115.979 39.7923L115.715 37.363C115.645 36.9757 115.487 36.7293 115.241 36.6237Z" fill="white"/>
<path d="M112.392 38.208L112.34 38.2608L108.7 41.0597C108.384 41.2534 108.155 41.5438 108.014 41.9311L107.645 42.6968L107.091 43.9907L107.197 44.3603L108.357 44.4131L111.417 43.8322C112.173 42.6352 112.551 41.2886 112.551 39.7923C112.551 39.2466 112.498 38.7185 112.392 38.208Z" fill="#008086"/>
<path d="M95.1967 42.1951L95.8561 42.5384L95.8297 42.0631C95.8121 40.9717 95.6363 39.9331 95.3022 38.9473L94.5374 36.9669C94.2912 37.6183 94.1682 38.296 94.1682 39.0001C94.1682 40.2148 94.511 41.2798 95.1967 42.1951Z" fill="#008086"/>
<path d="M95.2495 41.1918C95.4078 41.1918 95.566 41.0861 95.7242 40.8749L95.3023 38.9473C95.1089 38.3312 94.8627 37.6975 94.5638 37.0462C94.3176 37.5391 94.1946 38.1376 94.1946 38.8417C94.1946 39.493 94.3001 40.0475 94.5111 40.5052C94.7045 40.9629 94.9506 41.1918 95.2495 41.1918Z" fill="#00666C"/>
<path d="M94.88 40.6111C95.0031 41.1042 95.2581 41.3155 95.645 41.245C95.6098 40.8753 95.4691 40.3206 95.2229 39.5811C94.8888 39.8628 94.7744 40.2062 94.88 40.6111Z" fill="#0D131A"/>
<path d="M112.392 38.208L112.34 38.2608L108.7 41.0597C108.384 41.2534 108.155 41.5438 108.014 41.9311L107.434 43.1457L109.808 43.3041C110.757 43.1281 111.548 42.732 112.181 42.1159C112.428 41.3766 112.551 40.602 112.551 39.7923C112.551 39.2466 112.498 38.7185 112.392 38.208Z" fill="#00666C"/>
<path d="M111.206 43.6474L111.839 43.621C112.507 42.4768 112.841 41.2005 112.841 39.7923C112.841 39.2994 112.779 38.7097 112.656 38.0231L112.63 37.9967C112.612 38.2432 112.454 38.3664 112.155 38.3664L112.287 39.7923C112.287 41.1829 111.927 42.468 111.206 43.6474Z" fill="#0D131A"/>
<path d="M109.729 43.1457C110.028 43.1457 110.274 43.0401 110.467 42.8289C110.643 42.6176 110.731 42.3712 110.731 42.0895C110.731 41.8079 110.643 41.5614 110.467 41.3502C110.274 41.1565 110.054 41.0597 109.808 41.0597C109.579 41.0597 109.377 41.1653 109.201 41.3766C109.025 41.5878 108.937 41.8343 108.937 42.1159L109.122 42.8025L109.729 43.1457Z" fill="#0D131A"/>
<path d="M110.757 41.7468C111.021 41.7468 111.232 41.6499 111.39 41.4563C111.531 41.2802 111.601 41.0777 111.601 40.8488C111.601 40.5846 111.522 40.3645 111.364 40.1885C111.188 39.9948 110.986 39.8979 110.757 39.8979C110.546 39.8979 110.352 40.0036 110.177 40.2149C110.018 40.4086 109.939 40.6375 109.939 40.9016L110.177 41.4827C110.352 41.6587 110.546 41.7468 110.757 41.7468Z" fill="white"/>
<path d="M95.0384 40.004L95.3549 39.7662L95.4604 39.2908C95.4604 39.0619 95.4165 38.877 95.3285 38.7362C95.2582 38.5777 95.1615 38.4984 95.0384 38.4984L94.7482 38.7626L94.6426 39.3172L94.7482 39.7927L95.0384 40.004Z" fill="white"/>
<path d="M114.634 36.967C115.074 36.7029 115.346 36.8525 115.452 37.4158L115.715 39.8187C115.786 40.8749 115.777 41.5878 115.689 41.9575C115.601 42.3096 114.977 42.644 113.817 42.9609L111.575 43.489L108.304 44.1491L107.54 44.2283C107.399 44.2107 107.337 44.1403 107.355 44.0171L108.252 42.0367C108.357 41.7727 108.559 41.5174 108.858 41.271C110.054 40.3028 110.933 39.6075 111.496 39.185L114.634 36.967ZM115.188 36.0428C114.01 36.7117 112.779 37.5215 111.496 38.472L108.858 40.6637L108.225 41.2182C107.944 41.4646 107.768 41.6846 107.698 41.8783L106.326 44.7564L106.142 45.2317C106.107 45.4077 106.168 45.5222 106.326 45.575L106.537 45.4165L106.669 45.0733C106.704 44.9853 106.836 44.8972 107.065 44.8092L107.724 44.6772C108.269 44.6772 109.351 44.5012 110.968 44.1491L115.082 43.1457C115.469 42.9873 115.786 42.7056 116.032 42.3008C116.313 41.8607 116.454 41.3414 116.454 40.7429C116.454 40.25 116.401 39.5546 116.296 38.6569L116.164 37.2574L116.111 36.7029L116.164 36.2276C116.656 35.6995 116.876 35.3915 116.823 35.3034C116.753 35.2154 116.208 35.4619 115.188 36.0428Z" fill="#0D131A"/>
<path d="M94.0626 38.9209C94.0626 40.5228 94.5637 41.8079 95.5659 42.7761L95.9615 42.644C95.5044 42.2392 95.144 41.7199 94.8802 41.0861C94.5989 40.4348 94.4582 39.7395 94.4582 39.0002C94.4582 38.3488 94.5637 37.7415 94.7747 37.1782L94.4846 36.6765C94.2033 37.4159 94.0626 38.164 94.0626 38.9209Z" fill="#0D131A"/>
<path d="M93.4824 36.3596L93.5879 35.6731C94.1857 36.7821 94.6692 37.8999 95.0385 39.0265C95.3549 40.0123 95.5308 41.0333 95.5659 42.0895C94.9681 41.8079 94.4494 41.2798 94.0099 40.5052C93.6582 39.8715 93.4736 39.3698 93.456 39.0001C93.3681 38.0672 93.3769 37.187 93.4824 36.3596ZM101.685 4.62086C102.353 2.47326 103.311 1.39946 104.559 1.39946C105.386 1.39946 105.975 1.87475 106.326 2.82532C106.59 3.56466 106.678 4.40082 106.59 5.3338L106.247 9.6114L106.036 14.9188C106.071 16.7495 106.326 18.0962 106.801 18.9588C107.153 19.5749 107.803 20.1734 108.753 20.7543C109.509 21.212 110.414 21.5376 111.469 21.7313L113.896 21.8897L112.867 22.3386L111.628 22.9987L110.652 23.7645L109.386 24.8471C108.981 25.3048 108.779 25.5952 108.779 25.7184C108.797 25.8593 109.087 25.7272 109.65 25.3224L110.731 24.6094L111.575 23.9757C112.032 23.518 112.507 23.2276 112.999 23.1043C113.333 23.0515 113.773 22.8755 114.318 22.5762C114.968 22.2418 115.557 21.8369 116.085 21.3616C118.406 19.4429 120.489 17.6033 122.335 15.843L128.454 9.95467C128.946 9.49698 129.685 9.22413 130.669 9.13611C131.654 9.03049 132.366 9.17132 132.806 9.55859C133.21 9.91066 133.386 10.5004 133.333 11.3277C133.28 12.0671 133.105 12.6392 132.806 13.044L130.327 15.975L127.557 19.4869C124.058 25.0847 122.309 29.2831 122.309 32.082C122.309 33.3671 122.423 34.5729 122.652 35.6995L123.258 37.9703L123.786 40.2676C123.962 41.2182 124.05 41.9047 124.05 42.3272C124.05 42.8377 123.927 43.445 123.68 44.1491C123.417 44.9589 123.039 45.7158 122.546 46.4199C121.421 48.0746 120.718 49.0252 120.436 49.2717L119.935 49.3509C119.636 49.3509 119.408 49.4037 119.25 49.5093L117.377 50.988C116.234 52.009 115.267 53.0036 114.476 53.9718L110.863 58.1173C109.579 59.6136 108.797 60.6258 108.515 61.1539C108.252 61.594 107.54 62.1925 106.379 62.9494C104.92 63.9 103.61 64.3753 102.449 64.3753C101.852 64.3753 101.28 64.2609 100.735 64.032L99.733 63.5304C98.8714 63.1431 97.9835 62.9406 97.0692 62.923C95.2582 62.835 94.1066 62.615 93.6143 62.2629C93.2978 62.0341 93.034 61.6028 92.8231 60.9691C93.4736 61.6028 94.0978 61.9725 94.6956 62.0781C95.5044 62.2541 96.5505 62.0341 97.8341 61.418L99.1528 60.9691L100.709 60.7578L102.555 61.1275C103.469 61.3035 104.225 61.2947 104.823 61.1011C105.474 60.8899 105.984 60.5906 106.353 60.2033L107.25 58.9095C107.935 57.8533 108.893 56.6475 110.124 55.292C112.357 52.8803 113.817 51.4017 114.502 50.856C114.784 50.6271 115.364 50.3631 116.243 50.0638L117.878 49.4301C118.159 49.2541 118.37 48.9372 118.511 48.4795C118.599 48.1803 118.696 47.6698 118.801 46.948C118.872 46.4375 118.863 45.9799 118.775 45.575C118.705 45.2405 118.617 45.0733 118.511 45.0733C118.353 45.1085 118.265 45.3549 118.247 45.8126C118.054 47.3969 117.861 48.3563 117.667 48.6908C117.544 48.902 117.105 49.122 116.348 49.3509C115.452 49.6325 114.828 49.9054 114.476 50.1694L111.707 52.5195C110.37 53.7693 109.368 54.8079 108.7 55.6353C107.751 56.8323 106.863 58.1085 106.036 59.464L105.06 60.1241C104.551 60.3354 103.979 60.441 103.346 60.441L102.001 60.2561L100.603 60.0713L99.0473 60.2561L97.544 60.6522C96.2077 61.2331 95.4165 61.5236 95.1703 61.5236C94.6604 61.5236 93.9923 61.0923 93.1659 60.2297C92.1637 59.1911 91.1527 57.7477 90.1329 55.8993C89.5527 54.8431 89.0692 53.8133 88.6824 52.8099C88.2428 51.6833 88.023 50.8384 88.023 50.2751C88.023 49.8174 88.2077 49.4741 88.5769 49.2453L89.7637 48.3739C90.1505 47.9162 90.5989 47.0801 91.1088 45.8654C91.5659 44.8092 91.9 43.8851 92.111 43.0929C92.4099 42.0015 92.7791 40.8573 93.2187 39.6603C93.5703 40.6989 93.9747 41.491 94.4319 42.0367L95.1967 42.7232C95.4956 42.9345 95.6451 43.1545 95.6451 43.3834L95.7769 43.6474L96.0143 43.5946C96.1725 43.2777 96.2516 42.8905 96.2516 42.4328L96.0143 40.7165C95.8385 39.7483 95.6714 39.0882 95.5132 38.7361L93.6934 34.036C93.2363 32.6629 93.0077 31.4835 93.0077 30.4977C93.0077 29.8288 93.1395 29.2127 93.4033 28.6494C93.6143 28.2269 93.9659 27.7076 94.4582 27.0915C94.933 26.5106 95.4868 25.6656 96.1198 24.5566C96.8407 23.3068 97.4297 22.1098 97.8868 20.9655C98.8714 18.4483 99.7154 15.1124 100.419 10.9581C101.052 7.40219 101.474 5.28979 101.685 4.62086ZM101.052 3.37983L99.6275 10.0603L98.2033 16.5823C97.6934 18.4307 96.8846 20.4286 95.7769 22.5762L93.8516 26.1145C93.0604 27.5756 92.6033 28.6054 92.4802 29.2039C92.3395 29.8728 92.2868 30.4625 92.322 30.973L92.6384 32.3725L93.1395 34.168L92.9549 35.4355C92.8318 36.5093 92.8055 37.6271 92.8758 38.7889L90.8714 44.466L89.9219 46.6576C89.5351 47.3793 89.2186 47.8458 88.9725 48.057L87.8912 48.8228C87.3989 49.2101 87.1527 49.6677 87.1527 50.1958C87.1527 51.2696 87.6274 52.8011 88.5769 54.7903C89.5088 56.7795 90.5725 58.4782 91.7681 59.8865C91.8384 60.8018 92.2428 61.7084 92.9813 62.6062C93.3681 63.0463 94.1242 63.3631 95.2494 63.5568L98.1769 63.9C98.6868 63.9704 99.4165 64.2345 100.366 64.6922C101.175 65.097 101.931 65.2995 102.634 65.2995C103.513 65.2995 104.577 65.0002 105.825 64.4017C106.863 63.8912 107.636 63.3983 108.146 62.923L109.887 60.9163L112.472 57.7213L118.089 51.4633C118.581 50.9528 119.135 50.6359 119.751 50.5127L120.674 50.3279L122.098 48.6908L123.522 46.8424L124.63 44.8092C125.069 43.9115 125.289 43.2601 125.289 42.8553C125.289 42.292 124.964 40.6901 124.313 38.0496C123.733 35.5675 123.443 33.5695 123.443 32.0556C123.443 31.0346 123.865 29.4327 124.709 27.2499C125.447 25.3136 126.265 23.5532 127.162 21.9689C127.83 20.7895 129.034 19.2404 130.775 17.3217L133.861 13.9418C134.546 13.0793 134.845 12.0671 134.757 10.9052C134.687 9.84905 134.344 9.0745 133.729 8.58161C133.166 8.10632 132.313 7.85107 131.171 7.81586C129.834 7.76305 128.744 8.14153 127.9 8.95128L123.153 13.6778L118.722 18.0874C116.964 19.6541 115.724 20.5959 115.003 20.9127C114.546 21.124 113.781 21.212 112.709 21.1768C111.601 21.124 110.731 20.9567 110.098 20.6751C109.184 20.2878 108.507 19.8653 108.067 19.4076C107.381 18.6683 107.039 17.6825 107.039 16.4503L107.012 12.8592L107.118 9.71702L107.54 4.11917C107.575 3.30942 107.346 2.49966 106.854 1.68991C106.309 0.792142 105.614 0.281646 104.77 0.158423C103.926 0.0528027 103.135 0.343257 102.397 1.02979C101.711 1.68111 101.263 2.46446 101.052 3.37983Z" fill="#0D131A"/>
<defs>
<filter id="filter0_d_32_2024" x="114.195" y="19.9653" width="98.84" height="112.81" filterUnits="userSpaceOnUse" color-interpolation-filters="sRGB">
<feFlood flood-opacity="0" result="BackgroundImageFix"/>
<feColorMatrix in="SourceAlpha" type="matrix" values="0 0 0 0 0 0 0 0 0 0 0 0 0 0 0 0 0 0 127 0" result="hardAlpha"/>
<feOffset dx="10" dy="14"/>
<feGaussianBlur stdDeviation="7"/>
<feComposite in2="hardAlpha" operator="out"/>
<feColorMatrix type="matrix" values="0 0 0 0 0 0 0 0 0 0 0 0 0 0 0 0 0 0 0.26 0"/>
<feBlend mode="normal" in2="BackgroundImageFix" result="effect1_dropShadow_32_2024"/>
<feBlend mode="normal" in="SourceGraphic" in2="effect1_dropShadow_32_2024" result="shape"/>
</filter>
</defs>
</svg>
