<svg width="32" height="32" viewBox="0 0 32 32" fill="none" xmlns="http://www.w3.org/2000/svg">
<path d="M13.7001 23.0333C13.9668 22.7667 14.0948 22.4445 14.0841 22.0667C14.0734 21.6889 13.9343 21.3667 13.6668 21.1L9.90009 17.3333H24.7668C25.1445 17.3333 25.4614 17.2053 25.7174 16.9493C25.9734 16.6933 26.101 16.3769 26.1001 16C26.1001 15.6222 25.9721 15.3053 25.7161 15.0493C25.4601 14.7933 25.1436 14.6658 24.7668 14.6667H9.90009L13.7001 10.8667C13.9668 10.6 14.1001 10.2831 14.1001 9.91601C14.1001 9.5489 13.9668 9.23246 13.7001 8.96668C13.4334 8.70001 13.1165 8.56668 12.7494 8.56668C12.3823 8.56668 12.0659 8.70001 11.8001 8.96668L5.70009 15.0667C5.56676 15.2 5.47209 15.3445 5.41609 15.5C5.36009 15.6556 5.33253 15.8222 5.33342 16C5.33342 16.1778 5.36143 16.3445 5.41743 16.5C5.47343 16.6556 5.56765 16.8 5.70009 16.9333L11.8334 23.0667C12.0779 23.3111 12.3832 23.4333 12.7494 23.4333C13.1156 23.4333 13.4325 23.3 13.7001 23.0333Z" fill="black"/>
</svg>
